<?xml version="1.0" encoding="UTF-8"?>
<svg xmlns="http://www.w3.org/2000/svg" version="1.1" viewBox="0 0 355.1 512">
  <!-- Generator: Adobe Illustrator 29.1.0, SVG Export Plug-In . SVG Version: 2.1.0 Build 142)  -->
  <defs>
    <style>
      .st0 {
        fill-rule: evenodd;
      }
    </style>
  </defs>
  <g id="Layer_1" image-rendering="optimizeQuality" shape-rendering="geometricPrecision" text-rendering="geometricPrecision">
    <g id="Layer_x5F_1">
      <g id="_307659992">
        <g>
          <path id="_307666640" class="st0" d="M205.7,393.6c-76.6,0-138.9-62.3-138.9-138.9s2.4-5.3,5.3-5.3,5.3,2.4,5.3,5.3c0,70.7,57.5,128.3,128.3,128.3s128.3-57.5,128.3-128.3,2.4-5.3,5.3-5.3,5.3,2.4,5.3,5.3c0,76.6-62.3,138.9-138.9,138.9h0Z"/>
          <path id="_307666880" class="st0" d="M205.7,371.6c-48.7,0-92.8-30.6-109.7-76.2-1-2.8.4-5.8,3.1-6.9,2.8-1,5.8.4,6.9,3.1,15.4,41.4,55.5,69.3,99.7,69.3s5.3,2.4,5.3,5.3-2.4,5.3-5.3,5.3h0Z"/>
          <path id="_307666688" class="st0" d="M72.1,260c-.9,0-1.8-.2-2.7-.7C3.1,221-19.7,135.8,18.6,69.5,43.3,26.6,89.5,0,139,0s48.2,6.4,69.3,18.6c2.6,1.5,3.4,4.7,2,7.3l-133.6,231.4c-1,1.7-2.8,2.7-4.6,2.7h0ZM139,10.7c-45.7,0-88.4,24.6-111.2,64.2-17.1,29.7-21.7,64.2-12.8,97.3,8.4,31.4,27.9,57.9,55.2,75.1L198.4,25.3c-18.3-9.6-38.7-14.6-59.3-14.6h0Z"/>
          <path id="_307665800" class="st0" d="M65.2,228.2c-1.2,0-2.5-.4-3.5-1.3-41.7-36.7-51.9-98.2-24.1-146.4,1.5-2.6,4.7-3.4,7.3-2,2.6,1.5,3.4,4.7,2,7.3-25.3,43.8-16.1,99.7,21.9,133,2.2,1.9,2.4,5.3.5,7.5-1.1,1.2-2.5,1.8-4,1.8h0Z"/>
          <path id="_307665824" class="st0" d="M205.7,286.4c-36,0-69.9-2.8-95.5-7.8-29.2-5.8-43.4-13.6-43.4-23.9s1.5-4.3,3.5-5c-.3-1.8.3-3.7,1.8-5,15.2-13,68.9-21.7,133.6-21.7s69.9,2.8,95.5,7.8c29.2,5.8,43.4,13.6,43.4,23.9s-14.2,18.1-43.4,23.9c-25.6,5-59.5,7.8-95.5,7.8h0ZM77.3,253.7c0,.3,0,.6,0,1,0,1.4,6.3,7.9,35.3,13.5,24.8,4.9,57.9,7.5,92.9,7.5s68.1-2.7,92.9-7.5c29-5.7,35.2-12.1,35.3-13.5,0-1.4-6.3-7.8-35.3-13.5-24.8-4.9-57.9-7.5-92.9-7.5-67.7,0-115.8,9.9-126.7,19.1-.5.4-1.1.8-1.7,1h0Z"/>
          <path id="_307665944" class="st0" d="M292,280.1c-2.9,0-5.3-2.4-5.3-5.3v-40.3c0-2.9,2.4-5.3,5.3-5.3s5.3,2.4,5.3,5.3v40.3c0,2.9-2.4,5.3-5.3,5.3Z"/>
          <path id="_307665536" class="st0" d="M248.9,284.9c-2.9,0-5.3-2.4-5.3-5.3v-49.9c0-2.9,2.4-5.3,5.3-5.3s5.3,2.4,5.3,5.3v49.9c0,2.9-2.4,5.3-5.3,5.3Z"/>
          <path id="_307665440" class="st0" d="M205.7,286.4c-2.9,0-5.3-2.4-5.3-5.3v-52.8c0-2.9,2.4-5.3,5.3-5.3s5.3,2.4,5.3,5.3v52.8c0,2.9-2.4,5.3-5.3,5.3Z"/>
          <path id="_307665896" class="st0" d="M162.5,284.9c-2.9,0-5.3-2.4-5.3-5.3v-49.9c0-2.9,2.4-5.3,5.3-5.3s5.3,2.4,5.3,5.3v49.9c0,2.9-2.4,5.3-5.3,5.3Z"/>
          <path id="_307664600" class="st0" d="M119.4,280.1c-2.9,0-5.3-2.4-5.3-5.3v-40.3c0-2.9,2.4-5.3,5.3-5.3s5.3,2.4,5.3,5.3v40.3c0,2.9-2.4,5.3-5.3,5.3h0Z"/>
          <path id="_307664552" class="st0" d="M73.2,497.7c-2.9,0-5.8-.8-8.4-2.3-3.9-2.3-6.7-5.9-7.9-10.3-1.2-4.4-.6-9,1.7-12.9l64.5-111.8c1.5-2.5,4.7-3.4,7.3-2,2.6,1.5,3.4,4.7,2,7.3l-64.5,111.8c-1.7,3-.7,6.9,2.3,8.6,1.4.8,3.2,1.1,4.8.6,1.6-.4,3-1.5,3.8-2.9l64.4-111.5c1.5-2.6,4.7-3.4,7.3-2,2.6,1.5,3.4,4.7,2,7.3l-64.4,111.5c-2.3,3.9-5.9,6.7-10.3,7.9-1.5.4-3,.6-4.4.6h0Z"/>
          <path id="_307661888" class="st0" d="M338.2,497.7c-1.5,0-3-.2-4.4-.6-4.4-1.2-8.1-4-10.3-7.9l-64.4-111.5c-1.5-2.6-.6-5.8,2-7.3,2.5-1.5,5.8-.6,7.3,2l64.4,111.5c.8,1.5,2.2,2.5,3.8,2.9,1.6.4,3.3.2,4.8-.6,1.5-.8,2.5-2.2,2.9-3.8.4-1.6.2-3.3-.6-4.8l-64.5-111.8c-1.5-2.6-.6-5.8,2-7.3,2.5-1.5,5.8-.6,7.3,2l64.5,111.8c2.3,3.9,2.9,8.5,1.7,12.9-1.2,4.4-4,8.1-7.9,10.3-2.6,1.5-5.5,2.3-8.4,2.3h0Z"/>
          <path id="_307660352" class="st0" d="M205.7,512c-9.4,0-17-7.6-17-17v-107.3c0-2.9,2.4-5.3,5.3-5.3s5.3,2.4,5.3,5.3v107.3c0,3.5,2.8,6.3,6.3,6.3s6.3-2.8,6.3-6.3v-107.3c0-2.9,2.4-5.3,5.3-5.3s5.3,2.4,5.3,5.3v107.3c0,9.4-7.6,17-17,17h0Z"/>
          <g>
            <path id="_307660712" class="st0" d="M155.8,214c-.5,0-1,0-1.5-.2-2.8-.8-4.4-3.8-3.6-6.6,1.6-5.2,4.7-20.5.4-28.5-7.3-13.7-.6-32.9-.3-33.7,1-2.8,4-4.2,6.8-3.3,2.8,1,4.2,4,3.3,6.8-1.5,4.3-4.5,17.3-.3,25.2,7.1,13.4,1.1,34.2.4,36.6-.7,2.3-2.8,3.8-5.1,3.8h0Z"/>
            <path id="_307660040" class="st0" d="M205.7,192.1c-.5,0-1,0-1.5-.2-2.8-.8-4.4-3.8-3.6-6.6,1.6-5.2,4.7-20.5.4-28.5-7.3-13.7-.6-32.9-.3-33.7,1-2.8,4-4.2,6.8-3.2,2.8,1,4.2,4,3.3,6.8-1.5,4.3-4.5,17.3-.3,25.2,7.1,13.4,1.1,34.2.4,36.6-.7,2.3-2.8,3.8-5.1,3.8h0Z"/>
            <path id="_307660016" class="st0" d="M255.6,214c-.5,0-1,0-1.5-.2-2.8-.8-4.4-3.8-3.6-6.6,1.6-5.2,4.7-20.5.4-28.5-7.3-13.7-.6-32.9-.3-33.7,1-2.8,4-4.2,6.8-3.3,2.8,1,4.2,4,3.3,6.8-1.5,4.3-4.5,17.3-.3,25.2,7.1,13.4,1.1,34.2.4,36.6-.7,2.3-2.8,3.8-5.1,3.8h0Z"/>
          </g>
        </g>
      </g>
    </g>
  </g>
</svg>