<?xml version="1.0" encoding="UTF-8"?>
<svg id="Line" xmlns="http://www.w3.org/2000/svg" version="1.1" viewBox="0 0 56 54">
  <!-- Generator: Adobe Illustrator 29.1.0, SVG Export Plug-In . SVG Version: 2.1.0 Build 142)  -->
  <path d="M13,32h2c.6,0,1-.4,1-1v-15h25c1.3,0,1.3-2,0-2,0,0-26,0-26,0-.6,0-1,.4-1,1v15h-1c-1.7,0-3,1.3-3,3s1.3,3,3,3h.3c.7,2.3,2.7,9.9,2.7,14v3c0,.6.4,1,1,1s1-.4,1-1v-2h3.5v2c0,1.3,2,1.3,2,0v-2h3.5v2c0,.6.4,1,1,1s1-.4,1-1v-2h3.5v2c0,1.3,2,1.3,2,0v-2h3.5v2c0,1.3,2,1.3,2,0v-3c0-4.1,2.1-11.7,2.7-14,4.1.2,4.4-5.8.3-6,0,0-1,0-1,0v-10c0-1.3-2-1.3-2,0,0,0,0,10,0,10h-20c-.6,0-1,.4-1,1s.4,1,1,1h23c1.3,0,1.3,2,0,2H13c-1.3,0-1.3-2,0-2h0ZM38,49h-3.5c0-.9,0-1.9.2-3h3.7c-.2,1.1-.3,2.1-.3,3ZM38.7,44h-3.8c.1-1,.2-2,.3-3h4.2c-.2,1-.4,2-.6,3ZM32.9,44h-3.9v-3h4.2c-.1,1-.2,2-.3,3ZM17.6,46h3.7c0,1.1.2,2.1.2,3h-3.5c0-.9-.2-1.9-.3-3ZM17.3,44c-.2-1-.4-2-.6-3h4.2c.1,1,.2,2,.3,3h-3.8ZM22.8,41h4.2v3h-3.9c0-1-.2-2-.3-3ZM29,39v-3h4.8c-.1.7-.2,1.8-.4,3h-4.4ZM27,39h-4.4c-.2-1.2-.3-2.3-.4-3h4.8v3ZM20.5,39h-4.4c-.3-1.2-.6-2.2-.8-3h4.8c0,.7.2,1.7.4,3ZM23.5,49c0-.9,0-1.9-.2-3h3.7v3h-3.5ZM29,46h3.7c0,1.1-.1,2.1-.2,3h-3.5s0-3,0-3ZM39.9,39h-4.4c.2-1.3.3-2.3.4-3h4.8c-.2.8-.5,1.8-.8,3Z"/>
  <path d="M1,46h10.3c1.3,0,1.3-2,0-2H2V10c0-1.3-2-1.3-2,0C0,10,0,45,0,45c0,.6.4,1,1,1h0Z"/>
  <path d="M55,0H1C.4,0,0,.4,0,1v4c0,.6.4,1,1,1s1-.4,1-1v-3h52v42h-9.3c-.6,0-1,.4-1,1s.4,1,1,1h10.3c.6,0,1-.4,1-1V1c0-.6-.4-1-1-1Z"/>
</svg>