<?xml version="1.0"?>
<svg xmlns="http://www.w3.org/2000/svg" data-name="Layer 1" id="Layer_1" viewBox="0 0 128 128"><title/><path d="M77.32226,71.38672a2.00039,2.00039,0,0,0-.43018,2.79584,2.0212,2.0212,0,0,0,2.79541.43073c5.77588-4.23535,8.09668-8.126,7.09619-11.895C85.1831,56.68994,74.81006,52.66455,55.07178,50.41113a2.00023,2.00023,0,0,0-.4541,3.97461c24.70215,2.81982,27.90625,7.876,28.2998,9.35889C83.4248,65.65527,81.4375,68.36914,77.32226,71.38672Z"/><path d="M70.21148,42.01416a2.00011,2.00011,0,0,0-.47705,3.97168c.41211.04932,41.31445,5.15039,51.79541,21.689,7.5166,11.86133-3.31885,23.74121-16.14844,34.81055a2.00034,2.00034,0,0,0-.20752,2.82123,2.03127,2.03127,0,0,0,2.8208.20807c8.86572-7.65039,27.314-23.56934,16.91406-39.98047C113.41412,47.39551,71.97027,42.22559,70.21148,42.01416Z"/><path d="M76,92c-.11322,0-.22266.01489-.33539.017l1.51605,4.04285a14.01865,14.01865,0,1,1-11.23413,4.21973l-1.51776-4.04749A17.98259,17.98259,0,1,0,76,92Z"/><path d="M18,124a14,14,0,1,1,12.62994-20h4.31982a17.99386,17.99386,0,0,0-1.66467-3.4447c.8717-.19049,1.806-.43195,2.78418-.71832l-.57306-3.99152a25.03624,25.03624,0,0,1-5.1051,1.13794c-.28326-.27057-.57141-.53607-.8717-.7879l3.32349-5.22266c-1.13983-.05487-1.92444-.09033-1.94446-.091-.05273-.00244-.10645-.00586-.15918-.00977a10.32289,10.32289,0,0,1-2.296-.4375l-2.25616,3.54535A17.834,17.834,0,0,0,18,92a18,18,0,1,0,16.94977,24H30.62994A14.004,14.004,0,0,1,18,124Z"/><path d="M46.52685,77.67383c-.03906-.00391-1.771-.085-1.771-.085l.026-.15112-4.01044-.28162-.34222,1.9884a2.03716,2.03716,0,0,0,1.87939,2.33692l3.52.16113c.04883,1.03906.84424,17.99707,1.17041,25.34A.95284.95284,0,0,1,46.09521,108a.96593.96593,0,0,1-.91016-.96289L42.03174,85.06738a1.99956,1.99956,0,0,0-1.85352-1.71191c-3.43341-.21675-8.84848-.46279-8.86573-.46289a2.61458,2.61458,0,0,1-2.27295-3.05469l2.28564-13.42773A4.9903,4.9903,0,0,1,36.955,62.09741a5.996,5.996,0,0,1,6.27161,2.95532l.14453.25635,2.87018.20154A7.96532,7.96532,0,0,0,42.967,60.13733,6.48645,6.48645,0,0,0,45.5,55V51a6.5,6.5,0,0,0-13,0v4a6.45171,6.45171,0,0,0,.98572,3.42462,8.54562,8.54562,0,0,0-1.993.93622c-.24731.15918-.48151.33435-.7099.51593l-5.39362-.77716a5.281,5.281,0,0,0-6.1792,3.751L15.13475,75.75492c-.92642,3.26591,1.584,5.80758,4.42286,6.16793,0,0,5.99133,1.04913,6.01111,1.052a6.61558,6.61558,0,0,0,.85168,1.44409,6.48814,6.48814,0,0,0,4.6582,2.4668c.0459.002,3.96289.17969,7.22607.36523l2.91016,20.26563A4.916,4.916,0,0,0,46.09521,112a5.03721,5.03721,0,0,0,4.8999-5.19531c-.32227-7.25977-1.10352-23.91895-1.16895-25.30664A3.70031,3.70031,0,0,0,46.52685,77.67383ZM36.5,51a2.5,2.5,0,0,1,5,0v4a2.5,2.5,0,0,1-5,0ZM27.38672,65.71094,25.15094,78.84521l-4.89508-.86084c-.71973-.12891-1.27979-.6709-1.25439-1.18945l3.99561-12.65918c.3999-1.10107.9082-1.23437,1.76221-1.08643l3.28778.47327A10.51465,10.51465,0,0,0,27.38672,65.71094Z"/><path d="M54.99511,72.13965a2,2,0,0,0-1.855-2.13477l-12.062-.84277a.60923.60923,0,0,1-.17725-.08984l-1.15869-2.05469a2.00009,2.00009,0,1,0-3.48437,1.96484l1.33252,2.3623a4.24067,4.24067,0,0,0,3.3501,1.81348l11.91945.83692A2.021,2.021,0,0,0,54.99511,72.13965Z"/><path d="M64,7.91162a2.0001,2.0001,0,0,0,2-2V2a2,2,0,0,0-4,0V5.91162A2.0001,2.0001,0,0,0,64,7.91162Z"/><path d="M51.85888,11.24512a2.0353,2.0353,0,0,0,2.8252-.13184,1.99968,1.99968,0,0,0-.13184-2.8252l-2.84082-2.5874a1.99989,1.99989,0,1,0-2.69336,2.957Z"/><path d="M73.51318,11.11133a2.06276,2.06276,0,0,0,2.51959.36206c.54785-.33069,3.0863-2.75824,3.14838-2.8147a2,2,0,0,0-2.69141-2.959L73.647,8.28613A1.99977,1.99977,0,0,0,73.51318,11.11133Z"/><path d="M56.38769,7.55127a2.051,2.051,0,0,0,2.64844.99316A2.00022,2.00022,0,0,0,60.02929,5.896L58.49267,2.51465a2.00007,2.00007,0,1,0-3.6416,1.65527Z"/><path d="M69.19238,8.55518a2.05694,2.05694,0,0,0,2.65137-.98535l1.54688-3.377a2.00008,2.00008,0,1,0-3.63672-1.666L68.207,5.90381A2.00038,2.00038,0,0,0,69.19238,8.55518Z"/><path d="M76.42773,14.95264a2.04554,2.04554,0,0,0,2.5835,1.15186l3.70459-1.41992a2.00015,2.00015,0,1,0-1.43164-3.73535l-3.70459,1.41992A2.00076,2.00076,0,0,0,76.42773,14.95264Z"/><path d="M45.332,15.146l3.74561,1.32764a2.02366,2.02366,0,0,0,2.55322-1.21729,2.00021,2.00021,0,0,0-1.21729-2.55322L46.668,11.37549A2.00009,2.00009,0,0,0,45.332,15.146Z"/><path d="M57.45654,18.41748A6.79065,6.79065,0,0,1,70.54,18.40039a2,2,0,0,0,3.90918-.84766,10.78488,10.78488,0,0,0-20.90479.02972,2.00012,2.00012,0,0,0,3.91211.835Z"/><path d="M3.37793,39.44971l9.66162-9.18115a3.98594,3.98594,0,0,1,5.52686.022,2.00021,2.00021,0,0,0,2.83008-.05127l8.67725-9.01221a5.96091,5.96091,0,0,1,4.24951-1.83789,6.101,6.101,0,0,1,4.292,1.7334l3.28455,3.248a12.045,12.045,0,0,1,3.39655-2.26617l-3.86859-3.82562a10.00023,10.00023,0,0,0-14.23535.17383L19.73,26.20313a7.97844,7.97844,0,0,0-9.44629,1.166L.62207,36.55029a2.00009,2.00009,0,0,0,2.75586,2.89941Z"/><path d="M86.09875,24.37207l3.286-3.24951a6.09318,6.09318,0,0,1,4.292-1.7334,5.95894,5.95894,0,0,1,4.249,1.83789l8.67773,9.01221a1.99987,1.99987,0,0,0,1.40479.6123,1.96421,1.96421,0,0,0,1.42529-.561,3.98547,3.98547,0,0,1,5.52686-.022s9.656,9.17578,9.66162,9.18115a2.02766,2.02766,0,0,0,2.82764-.07178,2.00064,2.00064,0,0,0-.07178-2.82764l-9.66162-9.18115a7.97761,7.97761,0,0,0-9.44629-1.166l-7.46289-7.75049a9.99964,9.99964,0,0,0-14.23486-.17383l-3.87952,3.83643A12.084,12.084,0,0,1,86.09875,24.37207Z"/><path d="M75.313,30.09033a3.9786,3.9786,0,0,1,5.40039.187L85.25,34.73193a2.00123,2.00123,0,0,0,2.64258.14111,1.59589,1.59589,0,0,1,2.1167.12109l2.57861,2.5708a2.00013,2.00013,0,0,0,2.82422-2.833l-2.5791-2.5708a5.59831,5.59831,0,0,0-5.82568-1.30957l-3.4917-3.42871a7.95758,7.95758,0,0,0-10.80029-.37354L65.418,33.28271a1.9938,1.9938,0,0,1-2.582.0127L55.26318,26.958a7.97187,7.97187,0,0,0-10.73926.42627l-3.53125,3.46729a5.60055,5.60055,0,0,0-5.82617,1.30957l-2.57861,2.5708a2.00013,2.00013,0,0,0,2.82422,2.833l2.57813-2.5708a1.59539,1.59539,0,0,1,2.11719-.12109A2.00129,2.00129,0,0,0,42.75,34.73193l4.57666-4.49316a3.98481,3.98481,0,0,1,5.36914-.21338l7.57275,6.3374a5.98342,5.98342,0,0,0,7.74756-.03906Z"/><path d="M72.14306,105.4104A5.99434,5.99434,0,1,0,76,104c-.03784,0-.07434.005-.112.00568L63.2738,70.36786l2.755-1.653a1.99978,1.99978,0,1,0-2.05762-3.42969l-5.89062,3.53436a5.96334,5.96334,0,0,1,.90479,3.60089c-.014.19934-.06439.38574-.097.57874l.89838-.539,4.62158,12.3241-4.03333,4.76257L58.3208,87.49268c.67535-.72784,1.34161-1.47888,1.97729-2.2757l-1.67255-4.46014a36.6532,36.6532,0,0,1-4.57648,5.40625c.01825.39087.19958,4.28046.23981,5.14551.38983-.31885.78339-.66632,1.17651-1.01508l2.31586,2.31586-3.254,3.84235c.09406,2.03607.18646,4.046.26978,5.87213L66.01727,89.075ZM76,108a2,2,0,1,1-2,2A2.00229,2.00229,0,0,1,76,108Z"/><path d="M37.24127,108H23.65a6,6,0,1,0,0,4h15.0285a9.01423,9.01423,0,0,1-1.42651-3.92578ZM18,112a2,2,0,1,1,2-2A2.00229,2.00229,0,0,1,18,112Z"/><path d="M11,86a2.0001,2.0001,0,0,0,2,2H24.30115a10.471,10.471,0,0,1-1.02869-1.1123A10.63071,10.63071,0,0,1,21.66406,84H13A2.0001,2.0001,0,0,0,11,86Z"/><circle cx="97.74487" cy="63.00061" r="2"/><circle cx="103.40991" cy="68.57709" r="2"/><circle cx="104.65814" cy="76.23718" r="2"/><circle cx="100.65515" cy="83.10974" r="2"/><circle cx="95.12988" cy="88.88019" r="2"/></svg>
