<?xml version="1.0" encoding="UTF-8"?>
<svg id="Layer_1" xmlns="http://www.w3.org/2000/svg" version="1.1" viewBox="0 0 478 478.6">
  <!-- Generator: Adobe Illustrator 29.1.0, SVG Export Plug-In . SVG Version: 2.1.0 Build 142)  -->
  <path d="M241.9,478.6H17.7c-3.1,0-6.4.1-9.5-.1-7.1-.6-10.9-9.2-5.9-14.5,5.6-6,12.7.6,18.7-2.5,2.4-1.2,4.7-3,7-4.4l9.2-5.6c58.3-33.3,127.1-50.9,194-51.2v-46.4c-17.1-.8-34.1-3-48.4-12.9l-3.6-2.6c-2.3-1.7-7.3,1.8-10.8,2.7-21.5,5.2-49.4-2.7-63-20.2-20.6-26.5-9.4-65.6,10.5-89.1,4.7-5.5,10.2-10.4,15.9-14.9-12.4-11.8-21.6-28.3-21.3-45.7.4-27.9,26.1-66,55.3-71.1-11.5-18.1-6.1-35.7,7.6-50.9l22.6-27.3c10.7-12.5,23.7-20.6,40.2-21.9,32.8-.9,43.1,19.5,61.3,41.5,6.7,8.1,14.8,14.4,18.5,24.6,4.3,11.8,1.9,23.1-3.3,34,11.3,3.2,21.2,8.2,29.3,16.7,28.3,29.9,37,68.6,3.6,100,24,14.9,40.6,50.2,37.4,77.7-4.5,38.2-44.6,55.1-79.2,45l-3.2-1c-2.6-.9-3.5,1.2-5.6,2.6-14.8,9.7-31.2,12.1-48.4,12.2-.3,1.4,0,3,0,4.4v42.6c0,0,16.7.7,16.7.7,59.5,2.8,115.3,17.4,168.4,45l23.7,13.5c6.7,4.2,5.9,2.1,13.3,1.6,5.1-.3,9.1,3.4,9.3,8.5.4,9.8-8,9.1-14.3,9h-221.7ZM236.5,15.5c-24,3.1-29.6,20.5-44.3,36.4l-8,7.9c-7.7,8.1-12.3,20.1-6.6,30.5,6.5,11.8,10.6,15.1-4.1,25.3-5.1,3.5-9.3-3.4-22,7.9-24.3,21.5-36.5,53.8-11.1,79.7,3.7,3.8,12.1,9.7,11,15.7-.8,4.3-11.2,10.8-14.7,13.7-35.4,29.5-41.3,94.2,18.4,94.3,4.1,0,7.8-.1,11.8-1.3,4.2-1.3,9.5-5.7,13.8-5.2,4.1.5,7.4,5,10.5,7.4,10.8,8.7,26.7,10,40,10.4v-48c-1.5-.8-3.2-.9-4.8-1.4-27-9.1-45-30.2-53.9-57.1-3.3-10-9.5-40,1.6-45.3,6.9-3.3,10.7,4.3,14.4,8.7,11.2,13.1,23.5,23.5,39.7,29.9,1,.4,2,.5,2.9,1.2l.2-26.7c0-3.1-4.4-4.8-7.4-7.1-10.7-8.4-18.7-19.4-22.8-32.4-1.6-5.1-5.1-16.8-2.4-21.8,2.1-3.9,7-5.6,10.8-3.1,3.9,2.5,3.8,10.5,4.9,14.7,2.2,8.5,8.2,22.8,15.5,28.5.7.6,1,1,1.3,1.8v-69.2c.8-13.8,14.4-9.9,15-4l.4,71.6c.5-.7,1.1-1.1,1.9-1.5,7-3.8,14.7-23.3,15.7-30.9.6-4,.7-8.7,4.6-10.9,4.4-2.5,9.4-.7,10.2,4.5v.4c2.5,15.9-13.2,50.2-30.5,55.7-.8.3-1.6.4-2.1,1.1v11.4c14.5-2.7,26.5-7.1,38.8-15.6,4.6-3.1,11.4-11.4,17.5-7.1,5.6,4,3.6,12.1,2.3,17.8-6.3,27-24.4,50.4-50.6,60.7-8.2,3.2-8.1-1.1-8,6.7v59.2c0,2.6,0,5.3.1,7.9v.2c13.9-.3,28.8-2.3,40.3-10.8,9.3-6.9,7.8-11,19.5-3.8,4.9,3,11.1,3.3,16.7,3.3,24.2,0,45.5-14.1,44.8-40.1-.5-21.8-12.2-43.9-30.1-56.5-5.1-3.6-11.6-6.3-11.6-13.6,0-8.6,24.6-17.6,25.4-43.4.6-18.5-16.1-46.7-32.5-54.7-3.1-1.5-6.5-2.1-9.8-2.9-5.9-1.5-15.5-7.3-15.3-14.4.2-5.5,5-9.4,7.1-14.1,4-8.7-.5-20.1-6.5-26.7-3.7-4.1-8.2-7.4-11.8-11.7-11-13.3-21-32.4-40.7-33.4h-5.8ZM286.2,210.8c-7.8,4-15.7,7.3-24.2,9.8l-13.1,2.8c-.8.1-1.7,0-2.4.5v26.3c17.3-4.3,34.8-22.3,40.2-39.3h-.6ZM182.7,212c6.3,22.4,14.7,44.8,36.5,57l11.9,5.3.2-32c-18-6.7-35.9-15.2-48.5-30.3ZM226.4,415.5c-53.5,2.4-101.8,12.2-151.1,33.9l-19.3,9.3c-2,1-4.4,1.9-6.3,3.1l-.8.7c-.5.4-1.1.5-1.6.8l388.2,1.1c-5.5-1.5-10.5-4.5-15.6-7l-22-10.2c-27.5-11.6-56.4-20.5-85.8-25.7l-26.9-3.5-38.7-2.3v13.1s26,1.3,26,1.3c16.2,1.2,31.8,4,47.7,7.3l7,1.5c17.5,3.9,9.5,17.7.3,16l-37.8-7.5-30.5-3.1h-40.4c0,0-18.9,2-18.9,2-13.7,1.6-27.3,3.8-40.8,6.8l-6.7,1.5c-4.4.9-7.7.8-10.6-3.3-7.1-9.9,11.8-12.8,17-13.9,17.1-3.6,34.1-6.2,51.6-7.4l10.5-.5c3.5,0,7,.1,10.5-.1v-13.8c-1.5,0-3.6-.2-5,0h0Z"/>
</svg>