<?xml version="1.0" encoding="UTF-8"?>
<svg id="svg9" xmlns="http://www.w3.org/2000/svg" xmlns:xlink="http://www.w3.org/1999/xlink" xmlns:svg="http://www.w3.org/2000/svg" version="1.1" viewBox="0 0 647 682.7">
  <!-- Generator: Adobe Illustrator 29.1.0, SVG Export Plug-In . SVG Version: 2.1.0 Build 142)  -->
  <defs>
    <style>
      .st0, .st1 {
        fill: none;
      }

      .st1 {
        stroke: #000;
        stroke-linecap: round;
        stroke-linejoin: round;
        stroke-width: 20px;
      }

      .st2 {
        clip-path: url(#clippath);
      }
    </style>
    <clipPath id="clippath">
      <rect class="st0" x="-18" width="682.7" height="682.7"/>
    </clipPath>
  </defs>
  <g id="g15">
    <g id="g17">
      <g class="st2">
        <g id="g19">
          <g id="g25">
            <path id="path27" class="st1" d="M424.1,441.3c-19.4,0-35.1,15.8-35.1,35.1v40.5h70.3v-40.5c0-19.4-15.8-35.1-35.1-35.1Z"/>
          </g>
          <g id="g29">
            <path id="path31" class="st1" d="M256.5,441.3c-19.4,0-35.1,15.8-35.1,35.1v40.5h70.3v-40.5c0-19.4-15.8-35.1-35.1-35.1Z"/>
          </g>
          <g id="g33">
            <path id="path35" class="st1" d="M254.9,392.7c-45.9.9-82.2,39.3-82.2,85.2v39.1h48.7v-39.7c0-19,14.8-35.3,33.8-36,20-.8,36.5,15.3,36.5,35.1v188.7c0,4.2,3.4,7.5,7.5,7.5h33.6c4.2,0,7.5-3.4,7.5-7.5v-188.7c0-46.7-38.5-84.7-85.4-83.8Z"/>
          </g>
          <g id="g37">
            <path id="path39" class="st1" d="M454.6,517h-114.3v45.4h114.3c12.5,0,22.7-10.2,22.7-22.7s-10.2-22.7-22.7-22.7Z"/>
          </g>
          <g id="g41">
            <path id="path43" class="st1" d="M454.6,607.8h-114.3v45.4h114.3c12.5,0,22.7-10.2,22.7-22.7s-10.2-22.7-22.7-22.7Z"/>
          </g>
          <g id="g45">
            <path id="path47" class="st1" d="M422.5,392.7c-45.9.9-82.2,39.3-82.2,85.2v39.1h48.7v-39.7c0-19,14.8-35.3,33.8-36,20-.8,36.5,15.3,36.5,35.1v41c10.3,2.1,18.1,11.3,18.1,22.2s-7.7,20.1-18.1,22.2v46.4c10.3,2.1,18.1,11.3,18.1,22.2s-7.7,20.1-18.1,22.2v12.4c0,4.2,3.4,7.5,7.5,7.5h33.6c4.2,0,7.5-3.4,7.5-7.5v-188.7c0-46.7-38.5-84.7-85.4-83.8Z"/>
          </g>
          <g id="g49">
            <path id="path51" class="st1" d="M471,237.2c-16-.6-31.8-7.6-43-21.2-2.5-3.1-7.2-3.1-9.7,0-23.5,28.4-66.7,28.3-90.1,0-2.5-3.1-7.2-3.1-9.7,0-23.4,28.3-66.7,28.4-90.1,0-2.5-3.1-7.2-3.1-9.7,0-11.2,13.6-27,20.6-43,21.2"/>
          </g>
          <g id="g53">
            <path id="path55" class="st1" d="M480.5,318.8c-19,2.4-39-4.5-52.4-20.8-2.5-3.1-7.2-3.1-9.7,0-23.5,28.4-66.7,28.3-90.1,0-2.5-3.1-7.2-3.1-9.7,0-23.4,28.3-66.7,28.4-90.1,0-2.5-3.1-7.2-3.1-9.7,0-13.5,16.3-33.4,23.2-52.4,20.8"/>
          </g>
          <g id="g57">
            <path id="path59" class="st1" d="M461,153.4c-12.4-2.6-24.1-9.3-33-20-2.5-3.1-7.2-3.1-9.7,0-23.5,28.4-66.7,28.3-90.1,0-2.5-3.1-7.2-3.1-9.7,0-23.4,28.3-66.7,28.4-90.1,0-2.5-3.1-7.2-3.1-9.7,0-8.9,10.7-20.6,17.4-33,20"/>
          </g>
          <g id="g61">
            <path id="path63" class="st1" d="M300,55.4H120.6c-5.8,0-10.7,4.4-11.3,10.2l-51.7,438.8c-.3,3.2.7,6.4,2.9,8.8,2.2,2.4,5.2,3.7,8.4,3.7h103.8v-40.5c0-46.2,37.6-83.8,83.8-83.8s83.8,37.6,83.8,83.8c0-46.2,37.6-83.8,83.8-83.8s83.8,37.6,83.8,83.8v40.5h69.9c3.2,0,6.3-1.4,8.4-3.7,2.2-2.4,3.2-5.6,2.9-8.8l-51.7-438.8c-.6-5.8-5.5-10.2-11.3-10.2h-179.4"/>
          </g>
          <g id="g65">
            <path id="path67" class="st1" d="M612.8,318l-31.3-268c-2.3-22.8-21.3-40-44.3-40H109.5c-22.9,0-42,17.2-44.3,40L11.1,513.4c-2.6,26.2,18,48.9,44.3,48.9h236.3v-85.9c0-19.4-15.8-35.1-35.1-35.1s-35.1,15.8-35.1,35.1v40.5h-48.7v-40.5c0-46.2,37.6-83.8,83.8-83.8s83.8,37.6,83.8,83.8c0-46.2,37.6-83.8,83.8-83.8s83.8,37.6,83.8,83.8v85.9h83.5c26.4,0,46.9-22.8,44.3-48.9l-17.4-148.8"/>
          </g>
        </g>
      </g>
    </g>
  </g>
</svg>