<svg height="483pt" viewBox="-1 0 483 483.41031" width="483pt" xmlns="http://www.w3.org/2000/svg"><path d="m112.304688 427.3125h-16v-8c0-2.519531-1.1875-4.890625-3.203126-6.402344l-32-24c-2.710937-2.035156-6.414062-2.136718-9.238281-.253906l-24 16c-3.675781 2.453125-4.667969 7.417969-2.214843 11.097656 2.449218 3.675782 7.417968 4.667969 11.09375 2.214844l19.289062-12.855469 24.273438 18.199219v12c0 4.417969 3.582031 8 8 8h24c4.417968 0 8-3.582031 8-8s-3.582032-8-8-8zm0 0"/><path d="m62.960938 422.871094c-1.332032-1.992188-3.484376-3.28125-5.867188-3.519532-2.382812-.226562-4.746094.617188-6.445312 2.304688l-48 48c-2.082032 2.007812-2.914063 4.984375-2.183594 7.78125.734375 2.796875 2.917968 4.980469 5.714844 5.710938 2.796874.734374 5.769531-.101563 7.78125-2.179688l41.101562-41.105469 6.945312 10.402344-11.359374 11.359375c-3.03125 3.136719-2.988282 8.128906.097656 11.214844 3.085937 3.085937 8.074218 3.128906 11.214844.097656l16-16c2.695312-2.699219 3.113281-6.925781 1-10.097656zm0 0"/><path d="m112.304688 387.3125c0 8.835938-7.164063 16-16 16-8.835938 0-16-7.164062-16-16s7.164062-16 16-16c8.835937 0 16 7.164062 16 16zm0 0"/><path d="m144.304688 419.3125h212c33.136718 0 60-26.863281 60-60s-26.863282-60-60-60h-100v16h100c24.300781 0 44 19.699219 44 44s-19.699219 44-44 44h-212zm0 0"/><path d="m360.304688 235.3125h-236c-24.300782 0-44-19.699219-44-44s19.699218-44 44-44h220v-16h-220c-33.136719 0-60 26.863281-60 60s26.863281 60 60 60h236c57.410156.066406 103.933593 46.589844 104 104v8c-.066407 57.410156-46.589844 103.933594-104 104h-216v16h216c66.242187-.074219 119.921874-53.757812 120-120v-8c-.078126-66.242188-53.757813-119.925781-120-120zm0 0"/><path d="m128.304688 67.3125h216v16h-216zm0 0"/><path d="m144.304688 299.3125h-24c-57.410157-.066406-103.933594-46.589844-104-104v-8c-.003907-18.253906 4.792968-36.1875 13.910156-52l-13.839844-8c-10.53125 18.242188-16.074219 38.933594-16.070312 60v8c.074218 66.242188 53.753906 119.925781 120 120h24zm0 0"/><path d="m232.304688 339.3125h16.160156l-35.015625-32h30.316406l-43.78125-43.3125-42.847656 43.3125h29.648437l-34.320312 32h34.320312l-34.320312 32h39.839844v24h16v-24h40.160156l-35.015625-32zm0 0"/><path d="m88.304688 75.3125h16.160156l-35.015625-32h30.316406l-43.78125-43.3125-42.847656 43.3125h29.648437l-34.320312 32h34.320312l-34.320312 32h39.839844v24h16v-24h40.160156l-35.015625-32zm0 0"/><path d="m416.304688 83.3125h16v16h-16zm0 0"/><path d="m416.304688 51.3125h16v16h-16zm0 0"/><path d="m448.304688 51.3125h16v16h-16zm0 0"/><path d="m448.304688 83.3125h16v16h-16zm0 0"/><path d="m384.304688 49.097656c6.269531-3.621094 9.328124-11.003906 7.453124-18-1.875-6.992187-8.210937-11.859375-15.453124-11.859375-7.242188 0-13.582032 4.867188-15.457032 11.859375-1.875 6.996094 1.183594 14.378906 7.457032 18v146.214844h-16v16h48v-16h-16v-96h16v-16h-16v-16h16v-16h-16zm0 0"/></svg>