<?xml version="1.0" encoding="UTF-8"?>
<svg xmlns="http://www.w3.org/2000/svg" version="1.1" viewBox="0 0 459.6 451.1">
  <!-- Generator: Adobe Illustrator 29.1.0, SVG Export Plug-In . SVG Version: 2.1.0 Build 142)  -->
  <defs>
    <style>
      .st0 {
        fill-rule: evenodd;
      }
    </style>
  </defs>
  <g id="Layer_1" image-rendering="optimizeQuality" shape-rendering="geometricPrecision" text-rendering="geometricPrecision">
    <g id="Layer_x5F_1">
      <g id="_517863536">
        <path id="_517864280" class="st0" d="M181.4,245H26.6c-2.9,0-5.3-2.4-5.3-5.3v-128c0-2.9,2.4-5.3,5.3-5.3,2.9,0,5.3,2.4,5.3,5.3v122.7h144.3v-122.7c0-2.9,2.4-5.3,5.3-5.3,2.9,0,5.3,2.4,5.3,5.3v128c0,2.9-2.4,5.3-5.3,5.3h0Z"/>
        <path id="_517864208" class="st0" d="M20.2,245c-5.3,0-9.6,4.3-9.6,9.6v2.8c0,5.3,4.3,9.6,9.6,9.6h167.6c2.6,0,5-1,6.8-2.8,1.8-1.8,2.8-4.2,2.8-6.8v-2.8c0-5.3-4.3-9.6-9.6-9.6H20.2ZM187.8,277.6H20.2c-11.1,0-20.2-9-20.2-20.2v-2.8c0-11.1,9-20.2,20.2-20.2h167.6c11.1,0,20.2,9,20.2,20.2v2.8c0,5.4-2.1,10.4-5.9,14.3-3.8,3.8-8.9,5.9-14.3,5.9h0Z"/>
        <path id="_517863584" class="st0" d="M39.7,434.9c-10.1,0-18.4-8.2-18.4-18.4v-144.3c0-2.9,2.4-5.3,5.3-5.3s5.3,2.4,5.3,5.3v144.3c0,4.3,3.5,7.9,7.9,7.9s7.9-3.5,7.9-7.9v-144.3c0-2.9,2.4-5.3,5.3-5.3s5.3,2.4,5.3,5.3v144.3c0,10.1-8.2,18.4-18.4,18.4h0Z"/>
        <path id="_517863752" class="st0" d="M168.9,434.9c-10.1,0-18.4-8.2-18.4-18.4v-144.3c0-2.9,2.4-5.3,5.3-5.3s5.3,2.4,5.3,5.3v144.3c0,4.3,3.5,7.9,7.9,7.9s7.9-3.5,7.9-7.9v-144.3c0-2.9,2.4-5.3,5.3-5.3s5.3,2.4,5.3,5.3v144.3c0,10.1-8.2,18.4-18.4,18.4h0Z"/>
        <path id="_517863560" class="st0" d="M104,10.5h0c-.6,0-1.7.1-2.6,1.1L17.8,102.9c-.8.9-.6,1.8-.4,2.3.2.5.7,1.3,2,1.3h169.1c1.2,0,1.8-.8,2-1.3.2-.5.4-1.4-.4-2.3h0L106.6,11.7c-.9-1-2-1.1-2.6-1.1h0ZM188.5,117H19.4c-5.1,0-9.5-2.9-11.6-7.6-2.1-4.7-1.2-9.9,2.3-13.7L93.6,4.5c2.6-2.9,6.4-4.5,10.3-4.5h0c3.9,0,7.7,1.7,10.3,4.5l83.6,91.2c3.4,3.8,4.3,9,2.3,13.7-2.1,4.7-6.5,7.6-11.6,7.6h0Z"/>
        <path id="_517864112" class="st0" d="M155.8,395.1H52.8c-2.9,0-5.3-2.4-5.3-5.3,0-2.9,2.4-5.3,5.3-5.3h103c2.9,0,5.3,2.4,5.3,5.3,0,2.9-2.4,5.3-5.3,5.3h0Z"/>
        <path id="_517864304" class="st0" d="M155.8,356.3H52.8c-2.9,0-5.3-2.4-5.3-5.3,0-2.9,2.4-5.3,5.3-5.3h103c2.9,0,5.3,2.3,5.3,5.3,0,2.9-2.4,5.3-5.3,5.3h0Z"/>
        <path id="_517863920" class="st0" d="M155.8,317.3H52.8c-2.9,0-5.3-2.4-5.3-5.3,0-2.9,2.4-5.3,5.3-5.3h103c2.9,0,5.3,2.4,5.3,5.3,0,2.9-2.4,5.3-5.3,5.3h0Z"/>
        <path id="_517862960" class="st0" d="M450.8,451.1h-62.4c-5.7,0-11.1-2.6-14.7-7.1l-118-148.4h-73.7c-2.9,0-5.3-2.4-5.3-5.3,0-2.9,2.4-5.3,5.3-5.3h76.2c1.6,0,3.1.7,4.1,2l119.6,150.4c1.6,2,3.9,3.1,6.4,3.1h60.7v-59.2h-46.6c-1.6,0-3.1-.7-4.1-2l-116-145.8c-3.9-4.9-9.7-7.7-16-7.7h-85c-2.9,0-5.3-2.4-5.3-5.3s2.4-5.3,5.3-5.3h85c9.5,0,18.3,4.3,24.2,11.7l114.4,143.8h45.9c4.8,0,8.7,3.9,8.7,8.7v62.8c0,4.8-3.9,8.7-8.7,8.7h0Z"/>
        <path id="_517863488" class="st0" d="M254.5,225.9c-2.9,0-5.3-2.4-5.3-5.3v-25c0-16-13-29.1-29.1-29.1h-38.8c-2.9,0-5.3-2.4-5.3-5.3s2.4-5.3,5.3-5.3h38.8c21.8,0,39.6,17.8,39.6,39.6v25c0,2.9-2.4,5.3-5.3,5.3Z"/>
        <path id="_517863344" class="st0" d="M136.9,245c-2.9,0-5.3-2.3-5.3-5.3v-45.8c0-15.2-12.4-27.6-27.6-27.6s-27.6,12.4-27.6,27.6v45.8c0,2.9-2.4,5.3-5.3,5.3s-5.3-2.3-5.3-5.3v-45.8c0-21,17.1-38.1,38.1-38.1s38.1,17.1,38.1,38.1v45.8c0,2.9-2.4,5.3-5.3,5.3h0Z"/>
      </g>
    </g>
  </g>
</svg>