<?xml version="1.0" encoding="UTF-8"?>
<svg id="Layer_1" xmlns="http://www.w3.org/2000/svg" version="1.1" viewBox="0 0 54.8 38.3">
  <!-- Generator: Adobe Illustrator 29.1.0, SVG Export Plug-In . SVG Version: 2.1.0 Build 142)  -->
  <path d="M3,8.2c.5.4,1.2.7,1.9.8.2,0,.5,0,.7,0,.6,0,1.1,0,1.5-.2l.7-.3-.5-.5c-.6-.7-1-1.5-1.2-2.4v-.7c-.1,0-.7.3-.7.3-1,.5-2.1.9-3.2.9h-1s.6.8.6.8c.4.5.8.9,1.2,1.3Z"/>
  <path d="M53.3,33.1c-3.5,0-5.3.6-7,1.2-1.5.5-3,1-6,1s-4.5-.5-6-1c-1.7-.6-3.5-1.2-7-1.2s-5.2.6-7,1.2c-1.5.5-3,1-6,1s-4.5-.5-6-1c-1.7-.6-3.5-1.2-7-1.2s-1.5.7-1.5,1.5.7,1.5,1.5,1.5c3,0,4.5.5,6,1,1.7.6,3.5,1.2,7,1.2s5.2-.6,7-1.2c1.5-.5,3-1,6-1s4.5.5,6,1c1.7.6,3.5,1.2,7,1.2s5.3-.6,7-1.2c1.5-.5,3-1,6-1s1.5-.7,1.5-1.5-.7-1.5-1.5-1.5Z"/>
  <path d="M1.5,30.2c3,0,4.5.5,6,1,1.7.6,3.5,1.2,7,1.2s5.2-.6,7-1.2c.2,0,.3-.1.5-.2,1.8.4,3.6.6,5.5.6s3.7-.2,5.4-.6c.2,0,.4.1.6.2,1.7.6,3.5,1.2,7,1.2s5.3-.6,7-1.2c1.5-.5,3-1,6-1s1.5-.7,1.5-1.5-.7-1.5-1.5-1.5c-3.5,0-5.3.6-7,1.2-1.5.5-3,1-6,1s-2,0-2.7-.2c3.8-2.5,3.2-2,4-2.5,0,0,.1,0,.1-.1,2.5-2.2,4-5,4-8,0-6.9-8.4-12.5-18.6-12.5s-5.4.4-7.8,1.1h-.4c0,.1,0,.5,0,.5,0,1.2,0,2.4-.4,3.5-.4,1.6-1.1,2.9-1.9,4.2-.3.5-.5,1.1-.5,1.6s.2,1.2.7,1.8l.6.9.2-.9c.2-.7.4-1.5.8-2.1,1.7-2.8,4.9-4.4,8.6-4.4s.5,0,.8,0c3.9.2,6.8,1.5,8.2,3.5.5.7.8,1.5.9,2.3l.2,1.5.7-1.4c.2-.5.4-.9.4-1.3s0-.5-.1-.8c0-.3,0-.6.3-.6,0,0,.1,0,.2,0,.2,0,.4.1.5.3.1.4.2.7.2,1.1,0,3.6-5.8,6.9-12.1,6.9s-12.1-3.2-12.1-6.9.2-1.5.6-2.1c.7-1.2,1.5-2.5,1.8-3.9.3-1.3.4-2.6.3-3.9,0,0,0,0,0-.2-.1-1.2-.4-2.4-.8-3.4C16.2,1.4,14.6.3,12.2,0c-.2,0-.3,0-.5,0-2,0-3.9,1.3-4.5,3.1,0,.1,0,.3-.1.4h0s0,.2,0,.2c-.3,1.7.4,3.4,1.9,4.4l3.1,2.2c.1,0,.2.2.2.4,0,.2,0,.3-.2.4l-.8.8c-2.3,2.1-3.4,4.4-3.4,7.2s.8,4.1,2.4,5.8c2.1,2.3,5,3.9,6.2,4.5-.6,0-1.2,0-2,0-3,0-4.5-.5-6-1-1.7-.6-3.5-1.2-7-1.2s-1.5.7-1.5,1.5.7,1.5,1.5,1.5ZM10.5,5.2c-.4,0-.7-.3-.7-.7s.3-.7.7-.7.7.3.7.7-.3.7-.7.7Z"/>
</svg>