<?xml version="1.0" encoding="UTF-8"?>
<svg id="Capa_1" xmlns="http://www.w3.org/2000/svg" version="1.1" viewBox="0 0 512 484.7">
  <!-- Generator: Adobe Illustrator 29.1.0, SVG Export Plug-In . SVG Version: 2.1.0 Build 142)  -->
  <path d="M187.2,463.4c-1.1-4-5.2-6.3-9.2-5.2-4,1.1-6.3,5.2-5.2,9.2l3.3,11.8c.9,3.3,3.9,5.5,7.2,5.5s1.3,0,2-.3c4-1.1,6.3-5.2,5.2-9.2l-3.3-11.8Z"/>
  <path d="M212.2,458.1c-4-1.1-8.1,1.2-9.2,5.2l-3.3,11.8c-1.1,4,1.2,8.1,5.2,9.2.7.2,1.3.3,2,.3,3.3,0,6.3-2.2,7.2-5.5l3.3-11.8c1.1-4-1.2-8.1-5.2-9.2h0Z"/>
  <path d="M490.2,389.9h-11v-14.3c8.2-1.4,14.5-8.6,14.5-17.2v-30.4c0-9.6-7.9-17.5-17.5-17.5h-172.6c2.5-8.8,3.8-17.9,3.8-27.1,0-15.5-1.1-30.9-3.3-45.8-.6-4.1-4.4-6.9-8.5-6.3-4.1.6-6.9,4.4-6.3,8.5,2.1,14.2,3.1,28.9,3.1,43.6s-1.5,18.4-4.5,27.1c-9.6,0-17.4,7.9-17.4,17.5v11.8c-2.9,3.2-6,6.1-9.3,8.8v-71.1l12.2-13.8c2.7-3.1,2.4-7.8-.7-10.6s-7.8-2.4-10.6.7l-.9,1.1v-40.1c0-4.1-3.4-7.5-7.5-7.5s-7.5,3.4-7.5,7.5v19.3l-.9-1.1c-2.7-3.1-7.5-3.4-10.6-.7-3.1,2.7-3.4,7.5-.7,10.6l12.2,13.8v28.7l-.9-1.1c-2.7-3.1-7.5-3.4-10.6-.7-3.1,2.7-3.4,7.5-.7,10.6l12.2,13.8v40.6c-19.5-15.9-31.2-39.8-31.2-65.2,0-53.2,13.7-103.5,36.7-134.4.6-.9,1.5-1,2-1s1.3.1,2,1c11.4,15.4,20.8,36,27.2,59.7,1.1,4,5.2,6.4,9.2,5.3,4-1.1,6.4-5.2,5.3-9.2-2.7-10.2-6-19.8-9.8-28.8,6.1-1.9,12.5-2.8,19-2.8s5.3.2,8.1.5c0,0,.1,0,.2,0,15.9,2,30.4,9.8,41,21.9,1.5,1.7,3.6,2.6,5.6,2.6s3.5-.6,4.9-1.9c3.1-2.7,3.4-7.5.7-10.6-10.6-12.1-24.3-20.6-39.6-24.7,9.3-12.9,23.4-21.9,39.2-24.8.4,0,.7-.2,1-.3.3,0,.6,0,.9,0,3.1-.5,6.3-.7,9.4-.7,19.9,0,38.1,9.2,50.1,25.1,1.5,2,3.7,3,6,3s3.1-.5,4.5-1.5c3.3-2.5,4-7.2,1.5-10.5-14.6-19.5-37.8-31.1-62.1-31.1s-4.8.1-7.2.3c0-.5,0-1,0-1.5,0-9.6,7.8-17.5,17.5-17.5s8.3,1.5,11.5,4.3c1.7,1.5,4,2.1,6.3,1.7,2.2-.4,4.2-1.8,5.3-3.8,7.9-14.8,23.3-24.1,40.1-24.1,25.1,0,45.5,20.4,45.5,45.5s3.4,7.5,7.5,7.5,7.5-3.4,7.5-7.5c0-33.3-27.1-60.5-60.5-60.5s-37.8,9.5-49.1,25.1c-4.4-2.1-9.1-3.2-14-3.2-17.9,0-32.5,14.6-32.5,32.5s0,2.9.3,4.3c-18.7,5.6-34.9,18.1-44.8,35.1-1.6-.1-3.2-.1-4.8-.1-8.7,0-17.2,1.4-25.3,4.1-4.1-8.1-8.7-15.6-13.6-22.2-3.3-4.5-8.4-7-14-7s-6.2.8-8.8,2.3c-18-20.6-43.7-32.3-71.3-32.3s-18.2,1.3-26.9,3.9c-3.9-11-12.8-19.6-24.1-23-1.4-28.4-22.7-52-50.5-56.6C68,11.6,53.5,0,36.7,0S0,16.5,0,36.7s3.4,7.5,7.5,7.5,7.5-3.4,7.5-7.5c0-12,9.7-21.7,21.7-21.7s20.7,8.7,21.6,19.8c.3,3.7,3.3,6.6,7,6.9,23.8,1.5,42.5,21.5,42.5,45.3s0,1.7,0,2.6c-.2,4,2.7,7.5,6.7,7.9,10.4,1.1,18.6,9.4,19.4,19.8.2,2.4,1.5,4.5,3.5,5.8,2,1.3,4.5,1.5,6.7.6,9.5-3.8,19.5-5.7,29.7-5.7,23.9,0,46.1,10.4,61.3,28.7-22.3,33.9-34.9,83.1-34.9,136.6s17.6,65.5,46.2,83.7v38.5c-34.3,3.8-68.4,9.2-102.3,16v-45.1c28.6-18.2,46.2-49.8,46.2-83.7,0-57.2-14.5-109.4-39.6-143.4-3.3-4.5-8.4-7-14-7-5.6,0-10.7,2.6-14,7-5,6.7-9.6,14.3-13.8,22.6-1.9,3.7-.4,8.2,3.3,10.1,3.7,1.9,8.2.4,10.1-3.3,3.8-7.6,8-14.5,12.5-20.5.6-.9,1.5-1,2-1s1.3.1,2,1c23,31,36.7,81.2,36.7,134.4s-11.7,49.3-31.2,65.2v-19.8l12.2-13.8c2.7-3.1,2.4-7.8-.7-10.6s-7.8-2.4-10.6.7l-.9,1.1v-28.7l12.2-13.8c2.7-3.1,2.4-7.8-.7-10.6s-7.8-2.4-10.6.7l-.9,1.1v-40.1c0-4.1-3.4-7.5-7.5-7.5s-7.5,3.4-7.5,7.5v19.3l-.9-1.1c-2.7-3.1-7.5-3.4-10.6-.7-3.1,2.7-3.4,7.5-.7,10.6l12.2,13.8v28.7l-.9-1c-2.7-3.1-7.5-3.4-10.6-.7-3.1,2.7-3.4,7.5-.7,10.6l12.2,13.8v40.6c-19.5-15.9-31.2-39.8-31.2-65.2s4.3-59.5,12.5-85.1c1.3-3.9-.9-8.2-4.9-9.4-3.9-1.3-8.2.9-9.4,4.9-2.2,6.9-4.1,14.1-5.8,21.4-6.1-16.3-13.7-30.7-22.6-42.6-3.3-4.5-8.4-7-14-7s-10.7,2.6-14,7C14.5,215.7,0,268,0,325.2s17.6,65.5,46.2,83.7v36.7c-13.8,4-27.4,8.2-41,12.8-3.9,1.3-6.1,5.5-4.8,9.5,1,3.1,4,5.1,7.1,5.1s1.6-.1,2.4-.4c14.7-4.9,29.5-9.4,44.3-13.7,1,0,2-.4,2.9-.8,23.7-6.8,47.7-12.8,71.9-18v7.9c0,4.1,3.4,7.5,7.5,7.5s7.5-3.4,7.5-7.5v-11c35.6-7.3,71.5-12.9,107.7-16.8.7,0,1.4-.3,2-.5,3.1,8.2,11.1,14,20.3,14h5.4v26.8h-4.7c-4.1,0-7.5,3.4-7.5,7.5s3.4,7.5,7.5,7.5h214.8c4.1,0,7.5-3.4,7.5-7.5s-3.4-7.5-7.5-7.5h-4.7v-26.8h5.4c12,0,21.8-9.8,21.8-21.8s-9.8-21.8-21.8-21.8h0ZM15,325.2c0-53.2,13.7-103.5,36.7-134.4.6-.9,1.5-1,2-1s1.3.1,2,1c12.7,17.1,22.7,40.2,29.1,67-1.3,11.5-1.9,23.2-1.9,35s3.2,28.4,9.1,41.2c-2.3,22.2-13.4,42.5-30.7,56.5v-19.8l12.2-13.8c2.7-3.1,2.4-7.8-.7-10.6s-7.8-2.4-10.6.7l-.9,1.1v-28.7l12.2-13.8c2.7-3.1,2.4-7.8-.7-10.6s-7.8-2.4-10.6.7l-.9,1.1v-40.1c0-4.1-3.4-7.5-7.5-7.5s-7.5,3.4-7.5,7.5v19.3l-.9-1c-2.7-3.1-7.5-3.4-10.6-.7-3.1,2.7-3.4,7.5-.7,10.6l12.2,13.8v28.7l-.9-1c-2.7-3.1-7.5-3.4-10.6-.7-3.1,2.7-3.4,7.5-.7,10.6l12.2,13.8v40.6c-19.5-15.9-31.2-39.8-31.2-65.2h0ZM61.2,441.2v-32.4c20.6-13.1,35.5-33,42.2-56,7,9.1,15.6,17.1,25.6,23.4v48.3c-22.8,4.9-45.4,10.4-67.8,16.7ZM452.5,389.9v-14h11.7v14h-11.7ZM285.5,328c0-1.4,1.1-2.5,2.5-2.5h188.3c1.4,0,2.5,1.1,2.5,2.5v30.4c0,1.4-1.1,2.5-2.5,2.5h-52.6c-4.1,0-7.5,3.4-7.5,7.5s3.4,7.5,7.5,7.5h13.9v14h-110.9v-14h64.3c4.1,0,7.5-3.4,7.5-7.5s-3.4-7.5-7.5-7.5h-103c-1.4,0-2.5-1.1-2.5-2.5v-30.4ZM300,375.9h11.7v14h-11.7v-14ZM270.6,360.3c.8,7.8,6.8,14,14.4,15.3v14.3h-11c-4.8,0-9.2,1.5-12.8,4.2v-27c3.3-2.1,6.4-4.3,9.4-6.7h0ZM309.1,433.5v26.7h-14.7v-26.7h14.7ZM324.1,460.3v-26.8h116v26.8h-116ZM469.8,460.2h-14.7v-26.7h14.7v26.7ZM490.2,418.5h-216.2c-3.7,0-6.8-3-6.8-6.8s3-6.8,6.8-6.8h216.2c3.7,0,6.8,3,6.8,6.8s-3,6.8-6.8,6.8Z"/>
</svg>