<?xml version="1.0" encoding="UTF-8"?>
<svg id="terrace" xmlns="http://www.w3.org/2000/svg" version="1.1" viewBox="0 0 126 126">
  <!-- Generator: Adobe Illustrator 29.1.0, SVG Export Plug-In . SVG Version: 2.1.0 Build 142)  -->
  <path d="M43.4,115.4c-.3-.7-.8-1.3-1.3-1.8,3.1-2.3,3.7-6.7,1.4-9.8-1.3-1.8-3.4-2.8-5.6-2.8H14.4l-9.5-28.6c-.3-1-1.5-1.6-2.5-1.3-1,.3-1.6,1.5-1.3,2.5l10,30c.3.8,1,1.4,1.9,1.4h25c1.7,0,3,1.3,3,3s-1.3,3-3,3H11.1c-3.3,0-6.2,2-7.4,5l-2.5,6.2c-.4,1,0,2.2,1.1,2.6s2.2,0,2.6-1.1h0l2.5-6.2c.6-1.5,2.1-2.5,3.7-2.5h25.2c1.5,0,2.9.9,3.6,2.2l3.3,6.7c.5,1,1.7,1.4,2.7.9,1-.5,1.4-1.7.9-2.7h0l-3.3-6.7Z"/>
  <path d="M124.9,122.3l-2.5-6.2c-1.2-3-4.2-5-7.4-5h-26.9c-1.7,0-3-1.3-3-3s1.3-3,3-3h25c.9,0,1.6-.5,1.9-1.4l10-30c.3-1-.2-2.2-1.3-2.5-1-.3-2.2.2-2.5,1.3h0l-9.5,28.6h-23.6c-3.9,0-7,3.1-7,7,0,2.2,1,4.3,2.8,5.6-.5.5-.9,1.2-1.3,1.8l-3.3,6.7c-.5,1,0,2.2.9,2.7s2.2,0,2.7-.9l3.3-6.7c.7-1.4,2.1-2.2,3.6-2.2h25.2c1.6,0,3.1,1,3.7,2.5l2.5,6.2c.4,1,1.6,1.5,2.6,1.1,1-.4,1.5-1.6,1.1-2.6Z"/>
  <path d="M70.9,112.3c-.3-.8-1-1.3-1.9-1.3v-14h25c3.3,0,6-2.7,6-6s-2.7-6-6-6h-29v-37.6l35.3-12.4h22.7c1.1,0,2-.9,2-2,0-.7-.4-1.3-.9-1.7-4.9-3.1-48.7-30.3-61.1-30.3S6.9,28.2,1.9,31.3c-.9.6-1.2,1.8-.6,2.8.4.6,1,.9,1.7.9h21.7l36.3,12.4v37.6h-29c-3.3,0-6,2.7-6,6s2.7,6,6,6h25v14c-.8,0-1.6.5-1.9,1.3l-4,10c-.4,1,0,2.2,1.1,2.6.2,0,.5.1.7.1h20c1.1,0,2-.9,2-2,0-.3,0-.5-.1-.7l-4-10ZM72.6,35l-7.6,6.6v-6.6h7.6ZM61,41.6l-7.6-6.6h7.6v6.6ZM72.3,40.6l6.5-5.6h9.5l-16,5.6ZM63,5c8.3,0,37,16.4,52.9,26H10.1C26,21.4,54.7,5,63,5ZM37,35h10.2l6.7,5.8-16.9-5.8ZM30,91c0-1.1.9-2,2-2h62c1.1,0,2,.9,2,2s-.9,2-2,2h-62c-1.1,0-2-.9-2-2ZM61,97h4v14h-4v-14ZM56,121l2.4-6h9.3l2.4,6h-14.1Z"/>
  <path d="M65,9c0-1.1-.9-2-2-2s-3.6,0-13.8,4.8c-1,.5-1.4,1.7-1,2.7.5,1,1.7,1.4,2.7,1h0c8.5-4,11.3-4.4,12.2-4.4s2-.9,2-2Z"/>
  <path d="M43.1,14.7c-.9.5-1.9,1-2.9,1.5-1,.5-1.4,1.7-.9,2.7.5,1,1.7,1.4,2.7.9,1-.5,1.9-1,2.9-1.5,1-.5,1.4-1.7.9-2.7-.5-1-1.7-1.4-2.7-.9h0Z"/>
</svg>