<?xml version="1.0" encoding="UTF-8"?>
<svg id="Layer_1" xmlns="http://www.w3.org/2000/svg" version="1.1" viewBox="0 0 64 53.9">
  <!-- Generator: Adobe Illustrator 29.1.0, SVG Export Plug-In . SVG Version: 2.1.0 Build 142)  -->
  <path d="M56.6,21.3c.3-.2.6-.5.6-.9v-.2l-.2-9.7c0-.5-.5-1-1-1h-2.2l-2.1-9c0-.5-.5-.8-1-.8H13.3c-.5,0-.9.3-1,.8l-2.1,9h-2.1c-.5,0-1,.4-1,1v9.9c0,.3,0,.5.2.7q.1.1.2.1L0,52.7c-.1.6.3,1.2,1,1.2h62c.7,0,1.2-.8.9-1.4l-7.3-31.2ZM9,16.5h3.7v3h-3.7v-3ZM20.8,19.5v-3h4.1v3h-4.1ZM24.9,11.5v2.9h-4.1v-2.9h4.1ZM31,11.5v2.9h-4.1v-2.9h4.1ZM43.2,11.5v2.9h-4.1v-2.9h4.1ZM37.1,11.5v2.9h-4.1v-2.9h4.1ZM26.9,16.5h4.1v3h-4.1v-3ZM33,16.5h4.1v3h-4.1v-3ZM39.2,19.5v-3h4.1v3h-4.1ZM45.3,19.5v-3h4.1v3h-4.1ZM45.3,14.5v-2.9h4.1v2.9h-4.1ZM33,9.5v-2.5h14.2l.5,2.5h-14.7ZM46.8,5h-29.6l.6-3.2h28.4l.6,3.2ZM16.8,7h14.2v2.5c-.3,0-14.8,0-14.7,0l.5-2.5ZM18.8,11.5v2.9h-4.1v-2.9h4.1ZM18.8,16.5v3h-4.1v-3h4.1ZM14.1,21.5h16.9v18.3H10.6l3.5-18.3ZM10.2,41.8h43.5l1.9,10.2H8.3l1.9-10.2ZM33,39.8v-18.3h16.9l3.5,18.3h-20.4ZM51.4,19.5v-3h3.7v3h-3.7ZM55,14.5h-3.7v-2.9h3.7v2.9ZM51.7,9.5c0,0-2.1,0-2,0l-1.5-7.7h1.7l1.8,7.7ZM14.1,1.8h1.7l-1.5,7.7c-.1,0-2.2,0-2,0l1.8-7.7ZM11,11.5h1.7v2.9h-3.7v-2.9h2ZM9.4,21.5h2.6l-5.7,30.5H2.3l7.1-30.5ZM57.7,52l-5.8-30.5h2.6l7.2,30.5h-4Z"/>
</svg>