<?xml version="1.0" encoding="UTF-8"?>
<svg xmlns="http://www.w3.org/2000/svg" xmlns:xlink="http://www.w3.org/1999/xlink" version="1.1" id="Layer_1" x="0px" y="0px" viewBox="0 0 512 512" style="enable-background:new 0 0 512 512;" xml:space="preserve" width="512" height="512">
<g>
	<g>
		<g>
			<g>
				<path style="fill:none;stroke:#000000;stroke-width:15;stroke-linecap:round;stroke-linejoin:round;stroke-miterlimit:10;" d="&#10;&#9;&#9;&#9;&#9;&#9;M166.329,499.703c-6.533-0.775-12.051-1.551-16.537-2.249c-9.217-1.434-17.123-7.442-20.821-16.021&#10;&#9;&#9;&#9;&#9;&#9;c-18.585-43.118-22.732-92.359-23.391-121.066"/>
				<path style="fill:none;stroke:#000000;stroke-width:15;stroke-linecap:round;stroke-linejoin:round;stroke-miterlimit:10;" d="&#10;&#9;&#9;&#9;&#9;&#9;M406.42,360.366c-0.659,28.707-4.806,77.948-23.391,121.067c-3.698,8.579-11.604,14.587-20.821,16.021&#10;&#9;&#9;&#9;&#9;&#9;C343.801,500.317,308.012,504.5,256,504.5c-21.993,0-41.086-0.748-57.19-1.828"/>
				<path style="fill:none;stroke:#000000;stroke-width:15;stroke-linecap:round;stroke-linejoin:round;stroke-miterlimit:10;" d="&#10;&#9;&#9;&#9;&#9;&#9;M332.264,352.043c54.689,3.66,83.578,10.16,83.974,10.251c1.514,0.35,3.025,0.518,4.516,0.518&#10;&#9;&#9;&#9;&#9;&#9;c9.094,0,17.321-6.255,19.464-15.511c2.498-10.779-4.199-21.547-14.959-24.049c-2.409-0.56-60.253-13.721-169.265-13.721&#10;&#9;&#9;&#9;&#9;&#9;c-109.012,0-166.855,13.161-169.265,13.721c-10.75,2.5-17.435,13.249-14.953,24.022c2.481,10.773,13.218,17.494,23.974,15.021&#10;&#9;&#9;&#9;&#9;&#9;c0.552-0.127,56.394-12.689,160.244-12.689c15.343,0,29.639,0.274,42.863,0.742"/>
			</g>
			<g>
				
					<line style="fill:none;stroke:#000000;stroke-width:15;stroke-linecap:round;stroke-linejoin:round;stroke-miterlimit:10;" x1="193.55" y1="420.62" x2="193.55" y2="432.643"/>
				
					<line style="fill:none;stroke:#000000;stroke-width:15;stroke-linecap:round;stroke-linejoin:round;stroke-miterlimit:10;" x1="318.45" y1="420.62" x2="318.45" y2="432.643"/>
				<path style="fill:none;stroke:#000000;stroke-width:15;stroke-linecap:round;stroke-linejoin:round;stroke-miterlimit:10;" d="&#10;&#9;&#9;&#9;&#9;&#9;M239.535,432.285c4.003,4.602,9.893,7.515,16.465,7.515s12.461-2.912,16.465-7.515"/>
			</g>
		</g>
	</g>
	<g>
		<path style="fill:none;stroke:#000000;stroke-width:15;stroke-linejoin:round;stroke-miterlimit:10;" d="M219.216,239.952&#10;&#9;&#9;&#9;c0,0-63.398-48.48-137.213-62.177c-15.606-2.896-23.374,18.248-9.593,26.124c36.242,20.714,81.083,54.672,109.547,105.938"/>
		<path style="fill:none;stroke:#000000;stroke-width:15;stroke-linejoin:round;stroke-miterlimit:10;" d="M136.942,251.821&#10;&#9;&#9;&#9;c0,0-60.745-22.493-115.756-22.207c-15.264,0.079-19.051,21.365-4.728,26.643c27.136,10,56.873,28.454,70.605,62.435"/>
		<path style="fill:none;stroke:#000000;stroke-width:15;stroke-linejoin:round;stroke-miterlimit:10;" d="M292.784,239.952&#10;&#9;&#9;&#9;c0,0,63.398-48.48,137.213-62.177c15.606-2.896,23.374,18.248,9.593,26.124c-36.242,20.714-81.083,54.672-109.547,105.938"/>
		<path style="fill:none;stroke:#000000;stroke-width:15;stroke-linejoin:round;stroke-miterlimit:10;" d="M375.058,251.821&#10;&#9;&#9;&#9;c0,0,60.745-22.493,115.756-22.207c15.264,0.079,19.051,21.365,4.728,26.643c-27.136,10-56.873,28.454-70.605,62.435"/>
		<path style="fill:none;stroke:#000000;stroke-width:15;stroke-linejoin:round;stroke-miterlimit:10;" d="M256.007,308.02&#10;&#9;&#9;&#9;c25.919-69.188,75.976-116.403,107.666-140.879c9.719-7.506,4.671-23.064-7.604-23.39C283.711,141.827,256,177.505,256,177.505&#10;&#9;&#9;&#9;s-27.711-35.678-100.069-33.754c-12.275,0.326-17.323,15.884-7.604,23.39c31.69,24.476,81.746,71.691,107.666,140.879"/>
	</g>
	
		<line style="fill:none;stroke:#000000;stroke-width:15;stroke-linecap:round;stroke-linejoin:round;stroke-miterlimit:10;" x1="256" y1="177.505" x2="256" y2="127.144"/>
	<path style="fill:none;stroke:#000000;stroke-width:15;stroke-linecap:round;stroke-linejoin:round;stroke-miterlimit:10;" d="&#10;&#9;&#9;M211.866,110.503c9.289,9.765,23.246,16.641,44.134,16.641c57.463,0,62.472-52.036,62.145-73.106&#10;&#9;&#9;c-0.082-5.265-4.12-9.618-9.368-10.047c-13.983-1.143-40.811,0.864-52.776,30.13c-11.965-29.266-38.793-31.274-52.776-30.13&#10;&#9;&#9;c-5.248,0.429-9.286,4.782-9.368,10.047c-0.109,7.05,0.379,17.569,3.23,28.444"/>
	<path style="fill:none;stroke:#000000;stroke-width:15;stroke-linejoin:round;stroke-miterlimit:10;" d="M292.784,44.573&#10;&#9;&#9;c0,0-5.876-26.826-36.784-37.073c-30.908,10.247-36.784,37.073-36.784,37.073"/>
</g>















</svg>
