<svg width="36" height="32" viewBox="0 0 36 32" fill="none" xmlns="http://www.w3.org/2000/svg">
<rect width="36" height="32" rx="4" fill="#121823" fill-opacity="0.6"/>
<path d="M14.1531 16.125H15.5969L14.875 14.0461L14.1531 16.125ZM21.75 15.5C21.2332 15.5 20.8125 15.9207 20.8125 16.4375C20.8125 16.9543 21.2332 17.375 21.75 17.375C22.2668 17.375 22.6875 16.9543 22.6875 16.4375C22.6875 15.9207 22.2668 15.5 21.75 15.5ZM26.125 8H9.875C8.83984 8 8 8.83984 8 9.875V21.125C8 22.1602 8.83984 23 9.875 23H26.125C27.1602 23 28 22.1602 28 21.125V9.875C28 8.83984 27.1602 8 26.125 8ZM17.7883 19.25H17.1266C16.8605 19.25 16.6234 19.0812 16.5359 18.8301L16.248 18H13.5023L13.2141 18.8301C13.1714 18.9528 13.0917 19.0591 12.9858 19.1344C12.88 19.2096 12.7533 19.25 12.6234 19.25H11.9617C11.5316 19.25 11.2301 18.8262 11.3711 18.4199L13.4688 12.3797C13.5327 12.1957 13.6523 12.0363 13.811 11.9234C13.9697 11.8106 14.1596 11.75 14.3543 11.75H15.3957C15.5905 11.75 15.7804 11.8106 15.9391 11.9236C16.0979 12.0365 16.2174 12.196 16.2812 12.3801L18.3785 18.4199C18.5195 18.8262 18.218 19.25 17.7883 19.25ZM24.5625 18.625C24.5625 18.9703 24.2828 19.25 23.9375 19.25H23.3125C23.123 19.25 22.9594 19.1613 22.8445 19.0281C22.5078 19.1711 22.1379 19.25 21.75 19.25C20.1992 19.25 18.9375 17.9883 18.9375 16.4375C18.9375 14.8867 20.1992 13.625 21.75 13.625C22.0805 13.625 22.393 13.6926 22.6875 13.7977V12.375C22.6875 12.0297 22.9672 11.75 23.3125 11.75H23.9375C24.2828 11.75 24.5625 12.0297 24.5625 12.375V18.625Z" fill="white"/>
</svg>
