<svg width="18" height="13" viewBox="0 0 18 13" fill="none" xmlns="http://www.w3.org/2000/svg">
<path d="M16 0H4.5V4.5H18V2C18 1.46957 17.7893 0.960859 17.4142 0.585786C17.0391 0.210714 16.5304 0 16 0Z" fill="#068241"/>
<path d="M4.5 4.5H18V8.5H4.5V4.5Z" fill="#EEEEEE"/>
<path d="M4.5 13H16C16.5304 13 17.0391 12.7893 17.4142 12.4142C17.7893 12.0391 18 11.5304 18 11V8.5H4.5V13Z" fill="#141414"/>
<path d="M2 0C1.46957 0 0.960859 0.210714 0.585786 0.585786C0.210714 0.960859 0 1.46957 0 2L0 11C0 11.5304 0.210714 12.0391 0.585786 12.4142C0.960859 12.7893 1.46957 13 2 13H4.5V0H2Z" fill="#EC2028"/>
</svg>
