<svg width="113" height="113" viewBox="0 0 113 113" fill="none" xmlns="http://www.w3.org/2000/svg">
<path d="M111.733 75.6881C111.454 75.4786 111.128 75.3389 110.756 75.3156L58.4683 70.8225V66.0035H95.7166C96.4383 66.0035 97.0668 65.6078 97.3928 64.9559C97.6954 64.3274 97.6256 63.5591 97.1832 63.0004L58.0725 12.7152C58.0725 12.7152 58.0725 12.7152 58.0492 12.6919C58.0259 12.6453 57.9794 12.622 57.9561 12.5755L57.9328 12.5522C57.9095 12.5289 57.9095 12.5289 57.8863 12.5056C57.863 12.4824 57.863 12.4824 57.8397 12.4591C57.8164 12.4358 57.7699 12.4125 57.7466 12.3892C57.7233 12.3892 57.7233 12.366 57.7 12.366C57.6767 12.3427 57.6535 12.3427 57.6302 12.3194C57.5836 12.2961 57.537 12.2728 57.4905 12.2263C57.4672 12.203 57.4439 12.203 57.4207 12.1797C57.3974 12.1797 57.3974 12.1564 57.3741 12.1564C57.3275 12.1332 57.3042 12.1332 57.2577 12.1099H57.2344H57.2111C57.1879 12.1099 57.1646 12.0866 57.1413 12.0866H57.118C57.0715 12.0633 57.0249 12.0633 56.955 12.04H56.9318C56.9085 12.04 56.9085 12.04 56.8852 12.04C56.8619 12.04 56.8386 12.04 56.8154 12.04C56.7688 12.04 56.7455 12.04 56.699 12.04C56.6757 12.04 56.6524 12.04 56.6291 12.04C56.6058 12.04 56.6058 12.04 56.5826 12.04C56.5826 12.04 56.5826 12.04 56.5593 12.04C56.536 12.04 56.536 12.04 56.5127 12.04C56.4662 12.04 56.4196 12.04 56.373 12.04H56.3498C56.3265 12.04 56.3265 12.04 56.3032 12.04C56.2799 12.04 56.2799 12.04 56.2566 12.04C56.2101 12.04 56.1868 12.0633 56.1402 12.0633C56.117 12.0633 56.117 12.0633 56.0937 12.0866C56.0704 12.0866 56.0471 12.1099 56.0006 12.1099C56.0006 12.1099 56.0006 12.1099 55.9773 12.1099H55.954C55.9074 12.1332 55.8842 12.1332 55.8376 12.1564H55.8143C55.791 12.1797 55.7445 12.1797 55.7212 12.203C55.6979 12.2263 55.6514 12.2496 55.6281 12.2496C55.6048 12.2496 55.6048 12.2728 55.5815 12.2728C55.5582 12.2961 55.535 12.3194 55.4884 12.3194C55.4651 12.3194 55.4651 12.3427 55.4418 12.3427C55.4186 12.366 55.3953 12.3892 55.372 12.4125C55.3487 12.4125 55.3487 12.4358 55.3254 12.4591C55.3022 12.4824 55.2789 12.5056 55.2556 12.5289L55.2323 12.5522C55.209 12.5755 55.1858 12.5988 55.1625 12.622L17.9142 57.32C17.4485 57.8788 17.3554 58.647 17.6581 59.2988C17.9607 59.9507 18.6126 60.3697 19.3342 60.3697H54.7201V64.0946V70.4501L2.75874 66.0035C2.73546 66.0035 2.71218 66.0035 2.6889 66.0035C1.96722 65.957 1.29209 66.3295 0.966167 66.958C0.919607 67.0279 0.873047 67.121 0.849766 67.2141C0.779926 67.3771 0.756646 67.5633 0.733365 67.7263C0.710085 68.1686 0.826486 68.6109 1.10585 68.9834C1.40849 69.3792 1.71113 69.7749 2.01378 70.1474L2.29314 70.4966C2.52594 70.7993 2.75874 71.0786 3.01482 71.358C3.10795 71.4744 3.20107 71.5675 3.29419 71.6839C3.57355 72.0331 3.87619 72.359 4.15556 72.7082C4.31852 72.8945 4.48148 73.0807 4.64444 73.267C4.78412 73.4299 4.9238 73.5929 5.06348 73.7326C6.6931 75.5484 8.39255 77.2944 10.1618 78.9706C10.1851 78.9939 10.2317 79.0172 10.2782 79.0637C16.1914 84.5811 22.8961 89.2605 30.1363 92.8223C41.4504 98.4096 54.0916 101.366 66.6862 101.366H100.466C102.91 101.366 105.052 99.8064 105.82 97.5016L109.336 86.9324L112.408 77.7368C112.595 77.2013 112.502 76.596 112.199 76.1304C112.059 75.9675 111.92 75.8278 111.733 75.6881ZM58.4683 62.2787V58.5539V19.2802L91.8986 62.2787H58.4683ZM23.3384 56.6915L54.7434 19.0008V56.6915H23.3384ZM106.239 84.3949L12.2571 75.8511C11.1163 74.7802 10.0222 73.6627 8.95128 72.522C8.90472 72.4754 8.83488 72.4056 8.78831 72.359C8.43911 71.9865 8.08991 71.6141 7.76399 71.2183C7.5079 70.9389 7.25182 70.6363 6.99574 70.3337C6.9259 70.2638 6.85606 70.1707 6.78622 70.1009L108.078 78.8309L106.239 84.3949ZM102.258 96.3376C102.002 97.1292 101.257 97.6646 100.442 97.6646H66.6629C48.5276 97.6646 30.9511 91.2626 17.0295 80.0182L105.029 88.0266L102.258 96.3376Z" fill="url(#paint0_linear_2116_6921)"/>
<path d="M24.0126 95.9649C22.802 94.7543 21.1258 94.1723 19.4031 94.3818C17.7036 94.5913 16.2137 95.5691 15.3291 97.0358C14.8402 97.8273 14.0719 97.9204 13.7693 97.9204C13.4667 97.9204 12.6751 97.8273 12.2095 97.0358C11.3249 95.5691 9.83494 94.5913 8.13549 94.3818C6.43603 94.1723 4.75986 94.7543 3.52601 95.9649L1.26783 98.2231C0.546141 98.9447 0.546141 100.132 1.26783 100.854C1.98951 101.575 3.1768 101.575 3.89849 100.854L6.15667 98.5955C6.55243 98.1998 7.11116 98.0135 7.66988 98.0834C8.22861 98.1532 8.71749 98.4791 9.02013 98.9447C10.0212 100.621 11.8138 101.645 13.7693 101.645C15.7248 101.645 17.5174 100.644 18.5185 98.9447C18.7978 98.4559 19.2867 98.1532 19.8687 98.0834C20.4274 98.0135 20.9862 98.1998 21.3819 98.5955L23.6401 100.854C24.3618 101.575 25.5491 101.575 26.2708 100.854C26.9924 100.132 26.9924 98.9447 26.2708 98.2231L24.0126 95.9649Z" fill="url(#paint1_linear_2116_6921)"/>
<path d="M24.0126 106.743C22.802 105.533 21.1258 104.951 19.4031 105.16C17.7036 105.37 16.2137 106.347 15.3291 107.814C14.8402 108.606 14.0719 108.699 13.7693 108.699C13.4667 108.699 12.6751 108.606 12.2095 107.814C11.3249 106.347 9.83494 105.37 8.13549 105.16C6.43603 104.951 4.75986 105.533 3.52601 106.743L1.26783 109.001C0.546141 109.723 0.546141 110.91 1.26783 111.632C1.98951 112.354 3.1768 112.354 3.89849 111.632L6.15667 109.374C6.55243 108.978 7.11116 108.792 7.66988 108.862C8.22861 108.932 8.71749 109.257 9.02013 109.723C10.0212 111.399 11.8138 112.424 13.7693 112.424C15.7248 112.424 17.5174 111.423 18.5185 109.723C18.7978 109.234 19.2867 108.932 19.8687 108.862C20.4274 108.792 20.9862 108.978 21.3819 109.374L23.6401 111.632C24.3618 112.354 25.5491 112.354 26.2708 111.632C26.9924 110.91 26.9924 109.723 26.2708 109.001L24.0126 106.743Z" fill="url(#paint2_linear_2116_6921)"/>
<path d="M109.52 106.58C108.31 105.37 106.634 104.788 104.911 104.997C103.211 105.207 101.722 106.184 100.837 107.651C100.348 108.443 99.5797 108.536 99.2771 108.536C98.9745 108.536 98.1829 108.443 97.7173 107.651C96.8327 106.184 95.3428 105.207 93.6433 104.997C91.9438 104.788 90.2677 105.37 89.0338 106.58L86.7756 108.838C86.054 109.56 86.054 110.747 86.7756 111.469C87.4973 112.191 88.6846 112.191 89.4063 111.469L91.6645 109.211C92.0602 108.815 92.619 108.629 93.1777 108.699C93.7364 108.768 94.2253 109.094 94.5279 109.56C95.529 111.236 97.3216 112.26 99.2771 112.26C101.233 112.26 103.025 111.259 104.026 109.56C104.306 109.071 104.795 108.768 105.377 108.699C105.935 108.629 106.494 108.815 106.89 109.211L109.148 111.469C109.87 112.191 111.057 112.191 111.779 111.469C112.5 110.747 112.5 109.56 111.779 108.838L109.52 106.58Z" fill="url(#paint3_linear_2116_6921)"/>
<path d="M64.9852 106.743C63.7747 105.533 62.0985 104.951 60.3758 105.16C58.6763 105.37 57.1864 106.347 56.3017 107.814C55.8128 108.606 55.0446 108.699 54.742 108.699C54.4393 108.699 53.6478 108.606 53.1822 107.814C52.2975 106.347 50.8076 105.37 49.1081 105.16C47.4087 104.951 45.7325 105.533 44.4987 106.743L42.2405 109.001C41.5188 109.723 41.5188 110.91 42.2405 111.632C42.9622 112.354 44.1495 112.354 44.8711 111.632L47.1293 109.374C47.5251 108.978 48.0838 108.792 48.6425 108.862C49.2013 108.932 49.6901 109.257 49.9928 109.723C50.9938 111.399 52.7864 112.424 54.742 112.424C56.6975 112.424 58.4901 111.423 59.4911 109.723C59.7705 109.234 60.2594 108.932 60.8414 108.862C61.4001 108.792 61.9588 108.978 62.3546 109.374L64.6128 111.632C65.3344 112.354 66.5217 112.354 67.2434 111.632C67.9651 110.91 67.9651 109.723 67.2434 109.001L64.9852 106.743Z" fill="url(#paint4_linear_2116_6921)"/>
<path d="M5.78505 15.1823L9.23052 11.7368C9.95221 11.0151 10.9067 10.6194 11.9077 10.6194C12.9088 10.6194 13.8866 11.0151 14.585 11.7368L18.0304 15.1823C18.7521 15.904 19.9394 15.904 20.6611 15.1823L24.1066 11.7368C24.8283 11.0151 25.7827 10.6194 26.7838 10.6194C27.7848 10.6194 28.7626 11.0151 29.461 11.7368L32.9065 15.1823C33.279 15.5548 33.7446 15.7177 34.2335 15.7177C34.7223 15.7177 35.1879 15.5315 35.5604 15.1823C36.2821 14.4606 36.2821 13.2733 35.5604 12.5516L32.115 9.10615C30.6949 7.68606 28.8092 6.89453 26.7838 6.89453C24.7584 6.89453 22.8727 7.68606 21.4526 9.10615L19.3574 11.2246L17.2389 9.10615C15.8188 7.68606 13.9331 6.89453 11.9077 6.89453C9.88237 6.89453 7.99667 7.68606 6.57658 9.10615L3.13111 12.5283C2.40942 13.25 2.40942 14.4373 3.13111 15.159C3.87607 15.904 5.04009 15.904 5.78505 15.1823Z" fill="url(#paint5_linear_2116_6921)"/>
<path d="M84.5425 25.0298H105.029C109.126 25.0298 112.479 21.6774 112.479 17.5801C112.479 13.4828 109.126 10.1304 105.029 10.1304H103.12C102.655 4.91567 98.2546 0.818359 92.9234 0.818359C89.0356 0.818359 85.5203 3.02998 83.7743 6.42889C79.0019 6.82465 75.2305 10.8288 75.2305 15.7177C75.2305 20.8626 79.3976 25.0298 84.5425 25.0298ZM84.5425 10.1304H85.0314C85.823 10.1304 86.5214 9.64155 86.7774 8.89659C87.6854 6.28921 90.1764 4.54319 92.9234 4.54319C96.5086 4.54319 99.4419 7.4765 99.4419 11.0616V11.9929C99.4419 13.0172 100.28 13.8553 101.304 13.8553H105.029C107.078 13.8553 108.754 15.5314 108.754 17.5801C108.754 19.6288 107.078 21.3049 105.029 21.3049H84.5425C81.4696 21.3049 78.9553 18.7907 78.9553 15.7177C78.9553 12.6447 81.4696 10.1304 84.5425 10.1304Z" fill="url(#paint6_linear_2116_6921)"/>
<defs>
<linearGradient id="paint0_linear_2116_6921" x1="20.2566" y1="19.3254" x2="87.6867" y2="21.1226" gradientUnits="userSpaceOnUse">
<stop stop-color="#FFECE0"/>
<stop offset="0.505208" stop-color="#F0CAB2"/>
<stop offset="1" stop-color="#AC836D"/>
</linearGradient>
<linearGradient id="paint1_linear_2116_6921" x1="5.28352" y1="94.9357" x2="20.9408" y2="96.1265" gradientUnits="userSpaceOnUse">
<stop stop-color="#FFECE0"/>
<stop offset="0.505208" stop-color="#F0CAB2"/>
<stop offset="1" stop-color="#AC836D"/>
</linearGradient>
<linearGradient id="paint2_linear_2116_6921" x1="5.28352" y1="105.714" x2="20.9408" y2="106.905" gradientUnits="userSpaceOnUse">
<stop stop-color="#FFECE0"/>
<stop offset="0.505208" stop-color="#F0CAB2"/>
<stop offset="1" stop-color="#AC836D"/>
</linearGradient>
<linearGradient id="paint3_linear_2116_6921" x1="90.7913" y1="105.551" x2="106.449" y2="106.742" gradientUnits="userSpaceOnUse">
<stop stop-color="#FFECE0"/>
<stop offset="0.505208" stop-color="#F0CAB2"/>
<stop offset="1" stop-color="#AC836D"/>
</linearGradient>
<linearGradient id="paint4_linear_2116_6921" x1="46.2562" y1="105.714" x2="61.9134" y2="106.905" gradientUnits="userSpaceOnUse">
<stop stop-color="#FFECE0"/>
<stop offset="0.505208" stop-color="#F0CAB2"/>
<stop offset="1" stop-color="#AC836D"/>
</linearGradient>
<linearGradient id="paint5_linear_2116_6921" x1="8.44415" y1="7.61462" x2="28.5439" y2="9.23965" gradientUnits="userSpaceOnUse">
<stop stop-color="#FFECE0"/>
<stop offset="0.505208" stop-color="#F0CAB2"/>
<stop offset="1" stop-color="#AC836D"/>
</linearGradient>
<linearGradient id="paint6_linear_2116_6921" x1="81.7375" y1="2.79302" x2="104.2" y2="3.52912" gradientUnits="userSpaceOnUse">
<stop stop-color="#FFECE0"/>
<stop offset="0.505208" stop-color="#F0CAB2"/>
<stop offset="1" stop-color="#AC836D"/>
</linearGradient>
</defs>
</svg>
