<svg width="18" height="13" viewBox="0 0 18 13" fill="none" xmlns="http://www.w3.org/2000/svg">
<path d="M16 0H2C1.46957 0 0.960859 0.210714 0.585786 0.585786C0.210714 0.960859 0 1.46957 0 2L0 11C0 11.5304 0.210714 12.0391 0.585786 12.4142C0.960859 12.7893 1.46957 13 2 13H16C16.5304 13 17.0391 12.7893 17.4142 12.4142C17.7893 12.0391 18 11.5304 18 11V2C18 1.46957 17.7893 0.960859 17.4142 0.585786C17.0391 0.210714 16.5304 0 16 0Z" fill="#003399"/>
<path d="M9.26883 2.35242L9.69333 2.04392H9.16883L9.00633 1.54492L8.84433 2.04392H8.31983L8.74433 2.35242L8.58183 2.85142L9.00633 2.54292L9.43083 2.85142L9.26883 2.35242ZM9.26883 11.0189L9.69333 10.7104H9.16883L9.00633 10.2114L8.84433 10.7104H8.31983L8.74433 11.0189L8.58183 11.5179L9.00633 11.2094L9.43083 11.5179L9.26883 11.0189ZM4.93583 6.68542L5.36033 6.37692H4.83533L4.67333 5.87792L4.51083 6.37692H3.98633L4.41083 6.68542L4.24883 7.18442L4.67333 6.87592L5.09783 7.18442L4.93583 6.68542ZM5.48933 4.54292L5.91383 4.23442H5.38883L5.22683 3.73542L5.06483 4.23442H4.53983L4.96433 4.54292L4.80233 5.04192L5.22683 4.73342L5.65133 5.04192L5.48933 4.54292ZM5.48933 8.85242L5.91383 8.54392H5.38883L5.22683 8.04492L5.06483 8.54392H4.53983L4.96433 8.85242L4.80233 9.35142L5.22683 9.04292L5.65133 9.35142L5.48933 8.85242ZM7.10233 2.93292L7.52683 2.62442H7.00183L6.83983 2.12542L6.67783 2.62442H6.15283L6.57733 2.93292L6.41533 3.43192L6.83983 3.12342L7.26433 3.43192L7.10233 2.93292ZM7.10233 10.4664L7.52683 10.1579H7.00183L6.83983 9.65892L6.67783 10.1579H6.15283L6.57733 10.4664L6.41533 10.9654L6.83983 10.6574L7.26433 10.9654L7.10233 10.4664ZM13.0628 6.68542L12.6383 6.37692H13.1633L13.3253 5.87792L13.4878 6.37692H14.0123L13.5878 6.68542L13.7498 7.18442L13.3253 6.87592L12.9008 7.18442L13.0628 6.68542ZM12.5093 4.54292L12.0848 4.23442H12.6098L12.7718 3.73542L12.9338 4.23442H13.4588L13.0343 4.54292L13.1963 5.04192L12.7718 4.73342L12.3473 5.04192L12.5093 4.54292ZM12.5093 8.85242L12.0848 8.54392H12.6098L12.7718 8.04492L12.9338 8.54392H13.4588L13.0343 8.85242L13.1963 9.35142L12.7718 9.04292L12.3473 9.35142L12.5093 8.85242ZM10.8963 2.93292L10.4718 2.62442H10.9968L11.1588 2.12542L11.3208 2.62442H11.8458L11.4213 2.93292L11.5833 3.43192L11.1588 3.12342L10.7343 3.43192L10.8963 2.93292ZM10.8963 10.4664L10.4718 10.1579H10.9968L11.1588 9.65892L11.3208 10.1579H11.8458L11.4213 10.4664L11.5833 10.9654L11.1588 10.6574L10.7343 10.9654L10.8963 10.4664Z" fill="#FFCC00"/>
</svg>
