<svg width="101" height="101" viewBox="0 0 101 101" fill="none" xmlns="http://www.w3.org/2000/svg">
<path d="M94.9261 51.3538C94.9261 48.1032 94.6344 44.9776 94.0926 41.977H50.9175V59.7305H75.589C74.5054 65.4399 71.2548 70.2742 66.3788 73.5248V85.0688H81.2568C89.9251 77.0672 94.9261 65.3149 94.9261 51.3538Z" fill="#4285F4"/>
<path d="M50.9174 96.1542C63.2948 96.1542 73.6718 92.0701 81.2566 85.0687L66.3787 73.5248C62.2946 76.2753 57.0852 77.9423 50.9174 77.9423C38.9984 77.9423 28.8714 69.8991 25.2457 59.0636H9.99268V70.8993C17.5358 85.8605 32.9972 96.1542 50.9174 96.1542Z" fill="#34A853"/>
<path d="M25.2453 59.0219C24.3285 56.2714 23.7867 53.3541 23.7867 50.3119C23.7867 47.2696 24.3285 44.3524 25.2453 41.6018V29.7662H9.99234C6.86672 35.934 5.07471 42.8937 5.07471 50.3119C5.07471 57.73 6.86672 64.6897 9.99234 70.8576L21.8697 61.6057L25.2453 59.0219Z" fill="#FBBC05"/>
<path d="M50.9174 22.7232C57.6687 22.7232 63.6698 25.057 68.4625 29.5579L81.59 16.4303C73.6301 9.01219 63.2948 4.46964 50.9174 4.46964C32.9972 4.46964 17.5358 14.7633 9.99268 29.7663L25.2457 41.6019C28.8714 30.7665 38.9984 22.7232 50.9174 22.7232Z" fill="#EA4335"/>
</svg>
