<svg width="18" height="13" viewBox="0 0 18 13" xmlns="http://www.w3.org/2000/svg">
  <!-- Saffron Stripe -->
  <rect width="18" height="4.33333" y="0" fill="#FF9933"/>
  
  <!-- White Stripe -->
  <rect width="18" height="4.33333" y="4.33333" fill="#FFFFFF"/>
  
  <!-- Green Stripe -->
  <rect width="18" height="4.33333" y="8.66666" fill="#138808"/>
  
  <!-- Ashoka Chakra -->
  <g transform="translate(9, 6.5)">
    <circle r="1.2" fill="none" stroke="#000080" stroke-width="0.2"/>
    <!-- 24 Spokes -->
    <g stroke="#000080" stroke-width="0.1">
      <line x1="0" y1="0" x2="0" y2="-1.2"/>
      <line x1="0" y1="0" x2="0.4142" y2="-0.4142"/>
      <line x1="0" y1="0" x2="1.2" y2="0"/>
      <line x1="0" y1="0" x2="0.4142" y2="0.4142"/>
      <line x1="0" y1="0" x2="0" y2="1.2"/>
      <line x1="0" y1="0" x2="-0.4142" y2="0.4142"/>
      <line x1="0" y1="0" x2="-1.2" y2="0"/>
      <line x1="0" y1="0" x2="-0.4142" y2="-0.4142"/>
      <!-- Repeat spokes to make 24 in total -->
      <line x1="0" y1="0" x2="0" y2="-1.2"/>
      <line x1="0" y1="0" x2="0.4142" y2="-0.4142"/>
      <line x1="0" y1="0" x2="1.2" y2="0"/>
      <line x1="0" y1="0" x2="0.4142" y2="0.4142"/>
      <line x1="0" y1="0" x2="0" y2="1.2"/>
      <line x1="0" y1="0" x2="-0.4142" y2="0.4142"/>
      <line x1="0" y1="0" x2="-1.2" y2="0"/>
      <line x1="0" y1="0" x2="-0.4142" y2="-0.4142"/>
    </g>
  </g>
</svg>