<svg width="222" height="296" viewBox="0 0 222 296" fill="none" xmlns="http://www.w3.org/2000/svg">
<path d="M104.215 25.0871H153.234C153.234 25.0871 147.212 22.146 142.73 23.1264C138.248 24.1068 137.548 17.5242 134.747 19.4849C131.946 21.4457 131.806 19.0648 129.985 17.244C128.164 15.4233 123.262 16.1236 122.562 19.3449C121.722 23.5465 118.5 19.625 117.1 21.0255C113.598 24.5269 110.937 20.1852 108.977 21.8659C107.576 22.9863 106.036 24.1067 104.355 25.0871H104.215Z" fill="url(#paint0_linear_1749_412)"/>
<path d="M126.062 28.5889H211.916C211.916 28.5889 195.25 22.7066 189.367 24.2472C183.485 25.7878 178.163 26.3481 176.622 22.7066C174.101 16.9644 170.6 23.9671 167.239 22.7066C166.118 22.2865 161.637 9.40138 154.354 16.9644C147.071 24.5273 148.611 10.6619 143.149 14.4433C137.687 18.2248 136.707 11.6422 133.766 13.0428C130.824 14.4433 136.847 21.166 133.065 21.166C129.284 21.166 127.743 24.1072 129.144 25.5077C130.544 26.9083 126.203 28.5889 126.203 28.5889H126.062Z" fill="url(#paint1_linear_1749_412)"/>
<path d="M55.4739 291.612C55.4739 291.612 -2.64897 115.142 111.776 0.857422L122.98 20.7452V291.612H55.4739Z" stroke="white" stroke-miterlimit="10"/>
<path d="M122.98 37.5518H132.364L161.075 291.612H122.84V37.5518H122.98Z" fill="#DEDFE2"/>
<path d="M132.366 37.5518H122.982V291.612H135.447V63.8822L132.506 37.5518H132.366Z" fill="#C4C5C6"/>
<path opacity="0.8" d="M44.551 241.332H111.357V237.971H44.1309C44.2709 239.091 44.411 240.212 44.551 241.332Z" fill="white"/>
<path opacity="0.8" d="M43.428 232.508H111.355V229.146H43.0078C43.0078 230.267 43.2879 231.387 43.428 232.508Z" fill="white"/>
<path opacity="0.8" d="M42.45 223.686H111.357V220.324H42.1699C42.1699 221.445 42.31 222.565 42.45 223.686Z" fill="white"/>
<path opacity="0.8" d="M41.7489 215.002H111.356V211.641H41.4688C41.4688 212.761 41.6088 213.882 41.7489 215.002Z" fill="white"/>
<path opacity="0.8" d="M41.1909 206.178H111.358V202.816H41.0508C41.0508 203.937 41.0508 205.057 41.1909 206.178Z" fill="white"/>
<path opacity="0.8" d="M40.7695 197.495H111.357V194.134H40.7695C40.7695 195.254 40.7695 196.375 40.7695 197.495Z" fill="white"/>
<path opacity="0.8" d="M111.357 185.31H40.7695C40.7695 186.43 40.7695 187.55 40.7695 188.671H111.497V185.31H111.357Z" fill="white"/>
<path opacity="0.8" d="M111.354 179.849V176.487H40.9062C40.9062 177.608 40.9062 178.728 40.9062 179.849H111.494H111.354Z" fill="white"/>
<path opacity="0.8" d="M111.357 171.165V167.804H41.3295C41.3295 168.924 41.3295 170.045 41.1895 171.165H111.497H111.357Z" fill="white"/>
<path opacity="0.8" d="M111.355 162.341V158.979H41.8875C41.8875 160.1 41.7475 161.22 41.6074 162.341H111.355Z" fill="white"/>
<path opacity="0.8" d="M111.356 153.658V150.297H42.7287C42.7287 151.417 42.4486 152.538 42.3086 153.658H111.216H111.356Z" fill="white"/>
<path opacity="0.8" d="M111.356 144.834V141.473H43.8498C43.7098 142.593 43.5697 143.714 43.4297 144.834H111.356Z" fill="white"/>
<path opacity="0.8" d="M111.358 136.01V132.648H45.2516C45.1115 133.769 44.8315 134.889 44.6914 136.01H111.358Z" fill="white"/>
<path opacity="0.8" d="M111.356 127.328V123.967H46.9307C46.6506 125.087 46.5106 126.208 46.2305 127.328H111.356Z" fill="white"/>
<path opacity="0.8" d="M111.358 118.503V115.142H48.8936C48.6135 116.262 48.3334 117.382 48.1934 118.503H111.498H111.358Z" fill="white"/>
<path opacity="0.8" d="M111.357 109.82V106.459H51.1333C50.8532 107.579 50.5731 108.7 50.293 109.82H111.497H111.357Z" fill="white"/>
<path opacity="0.8" d="M111.355 100.996V97.6348H53.6523C53.3722 98.7552 52.952 99.8756 52.6719 100.996H111.355Z" fill="white"/>
<path opacity="0.8" d="M111.357 92.1728V88.8115H56.5951C56.175 89.932 55.8948 91.0524 55.4746 92.1728H111.357Z" fill="white"/>
<path opacity="0.8" d="M111.357 83.4892V80.1279H59.8172C59.397 81.2484 58.9768 82.3688 58.5566 83.4892H111.357Z" fill="white"/>
<path opacity="0.8" d="M111.356 74.666V71.3047H63.4572C63.037 72.4251 62.4768 73.5456 62.0566 74.666H111.356Z" fill="white"/>
<path opacity="0.8" d="M111.356 65.9824V62.6211H67.5192C66.959 63.7415 66.3987 64.862 65.9785 65.9824H111.356Z" fill="white"/>
<path opacity="0.8" d="M111.356 57.1592V53.7979H72.141C71.5808 54.9183 71.0206 56.0387 70.3203 57.1592H111.356Z" fill="white"/>
<path opacity="0.8" d="M111.356 48.4756V45.1143H77.0428C76.3426 46.2347 75.7823 47.3551 75.082 48.4756H111.356Z" fill="white"/>
<path d="M92.5891 215.003H87.127V220.465H92.5891V215.003Z" fill="url(#paint2_linear_1749_412)"/>
<path d="M103.091 171.164H97.6289V176.626H103.091V171.164Z" fill="url(#paint3_linear_1749_412)"/>
<path d="M86.1458 74.666H80.6836V80.1282H86.1458V74.666Z" fill="url(#paint4_linear_1749_412)"/>
<path d="M103.092 127.046H86.2852V132.508H103.092V127.046Z" fill="url(#paint5_linear_1749_412)"/>
<path d="M63.0384 118.503H57.5762V123.965H63.0384V118.503Z" fill="url(#paint6_linear_1749_412)"/>
<path opacity="0.1" d="M100.293 291.612L122.842 67.3838V291.612H100.293Z" fill="white"/>
<path d="M72.0012 118.503H66.5391V123.965H72.0012V118.503Z" fill="url(#paint7_linear_1749_412)"/>
<path d="M222 291.61H0.712891V295.532H222V291.61Z" fill="white"/>
<path d="M28.5874 41.1932H112.2C112.2 41.1932 101.836 36.0112 94.1332 37.8319C86.4301 39.6526 85.1696 28.3081 80.5478 31.6695C75.926 35.0308 75.6458 30.9692 72.2845 27.7479C68.9232 24.5266 60.8 25.7871 59.6795 31.3893C58.1389 38.5322 52.8169 31.8095 50.2959 34.1904C44.2735 40.0728 39.7918 32.6498 36.2904 35.591C33.9095 37.5518 31.2484 39.3725 28.4473 40.9131L28.5874 41.1932Z" fill="url(#paint8_linear_1749_412)"/>
<path d="M78.8666 39.3727H111.499C111.499 39.3727 105.197 37.1318 102.956 37.692C100.715 38.2522 98.7544 38.5324 98.0542 37.1318C97.0738 34.8909 95.8133 37.552 94.4128 37.1318C93.9926 36.9917 92.3119 32.0898 89.5108 34.8909C86.7097 37.692 87.2699 32.51 85.3092 33.9106C83.3484 35.3111 82.7881 32.9301 81.6677 33.3503C80.5472 33.7705 82.7881 36.4315 81.3876 36.4315C79.987 36.4315 79.4268 37.552 79.847 38.1122C80.2672 38.6724 78.7266 39.2326 78.7266 39.2326L78.8666 39.3727Z" fill="url(#paint9_linear_1749_412)"/>
<path d="M76.4816 232.509H71.0195V237.971H76.4816V232.509Z" fill="url(#paint10_linear_1749_412)"/>
<path d="M103.092 215.003H95.5293V220.465H103.092V215.003Z" fill="url(#paint11_linear_1749_412)"/>
<defs>
<linearGradient id="paint0_linear_1749_412" x1="134.467" y1="28.7986" x2="198.192" y2="28.7986" gradientUnits="userSpaceOnUse">
<stop stop-color="white"/>
<stop offset="1" stop-color="white" stop-opacity="0"/>
</linearGradient>
<linearGradient id="paint1_linear_1749_412" x1="164.326" y1="33.0987" x2="250.179" y2="33.0987" gradientUnits="userSpaceOnUse">
<stop stop-color="white"/>
<stop offset="1" stop-color="white" stop-opacity="0"/>
</linearGradient>
<linearGradient id="paint2_linear_1749_412" x1="89.2558" y1="214.149" x2="94.7179" y2="214.149" gradientUnits="userSpaceOnUse">
<stop stop-color="#F0CAB2"/>
<stop offset="1" stop-color="#AC836D"/>
</linearGradient>
<linearGradient id="paint3_linear_1749_412" x1="99.7577" y1="170.31" x2="105.22" y2="170.31" gradientUnits="userSpaceOnUse">
<stop stop-color="#F0CAB2"/>
<stop offset="1" stop-color="#AC836D"/>
</linearGradient>
<linearGradient id="paint4_linear_1749_412" x1="82.8124" y1="73.9517" x2="88.2746" y2="73.9517" gradientUnits="userSpaceOnUse">
<stop stop-color="#F0CAB2"/>
<stop offset="1" stop-color="#AC836D"/>
</linearGradient>
<linearGradient id="paint5_linear_1749_412" x1="124.24" y1="126.332" x2="141.047" y2="126.332" gradientUnits="userSpaceOnUse">
<stop stop-color="#F0CAB2"/>
<stop offset="1" stop-color="#AC836D"/>
</linearGradient>
<linearGradient id="paint6_linear_1749_412" x1="59.705" y1="117.789" x2="65.1672" y2="117.789" gradientUnits="userSpaceOnUse">
<stop stop-color="#F0CAB2"/>
<stop offset="1" stop-color="#AC836D"/>
</linearGradient>
<linearGradient id="paint7_linear_1749_412" x1="68.6679" y1="117.789" x2="74.1301" y2="117.789" gradientUnits="userSpaceOnUse">
<stop stop-color="#F0CAB2"/>
<stop offset="1" stop-color="#AC836D"/>
</linearGradient>
<linearGradient id="paint8_linear_1749_412" x1="73.643" y1="-2.39197" x2="157.256" y2="-2.39197" gradientUnits="userSpaceOnUse">
<stop stop-color="white"/>
<stop offset="1" stop-color="white" stop-opacity="0"/>
</linearGradient>
<linearGradient id="paint9_linear_1749_412" x1="109.721" y1="-11.8597" x2="155.407" y2="-11.8597" gradientUnits="userSpaceOnUse">
<stop stop-color="white"/>
<stop offset="1" stop-color="white" stop-opacity="0"/>
</linearGradient>
<linearGradient id="paint10_linear_1749_412" x1="73.1483" y1="231.654" x2="78.6104" y2="231.654" gradientUnits="userSpaceOnUse">
<stop stop-color="#F0CAB2"/>
<stop offset="1" stop-color="#AC836D"/>
</linearGradient>
<linearGradient id="paint11_linear_1749_412" x1="93.2044" y1="214.149" x2="100.767" y2="214.149" gradientUnits="userSpaceOnUse">
<stop stop-color="#F0CAB2"/>
<stop offset="1" stop-color="#AC836D"/>
</linearGradient>
</defs>
</svg>
