<svg width="12" height="14" viewBox="0 0 12 14" fill="none" xmlns="http://www.w3.org/2000/svg">
<path d="M5.93091 0.0892259C5.98746 0.0749975 6.04659 0.0719719 6.10489 0.0803222C6.16319 0.0886725 6.21954 0.108235 6.2707 0.137891L11.7267 3.28789C11.83 3.34756 11.9061 3.44471 11.9382 3.55796C11.9702 3.67121 11.9556 3.79129 11.8976 3.89178C11.6001 4.40706 11.1174 4.6275 10.747 4.72182C10.5942 4.75984 10.4542 4.77906 10.3408 4.78834L8.40219 8.14603L8.44199 8.2175C8.54465 8.40509 8.67562 8.66964 8.78452 8.97601C8.9954 9.56657 9.16523 10.4244 8.73954 11.1617C8.68152 11.2622 8.58483 11.3349 8.47072 11.3637C8.35661 11.3926 8.23444 11.3753 8.13108 11.3156L5.01339 9.51561L3.04464 12.9256C2.92389 13.1347 2.2138 13.9614 1.99868 13.8372C1.78356 13.713 2.14446 12.6847 2.26521 12.4756L4.23396 9.06561L1.11627 7.26561C1.01292 7.20594 0.936837 7.10879 0.904776 6.99554C0.872715 6.88229 0.887296 6.76221 0.945312 6.66173C1.371 5.92442 2.19883 5.64257 2.81492 5.52946C3.11484 5.47566 3.41956 5.44774 3.72566 5.44603L5.66422 2.08834C5.60499 1.96393 5.55631 1.83511 5.51868 1.70322C5.41517 1.3353 5.36517 0.806305 5.66223 0.291777C5.69089 0.241935 5.72937 0.198392 5.77547 0.163637C5.82157 0.128881 5.87439 0.103596 5.93091 0.0892259ZM6.54527 1.86551L6.54639 1.86717C6.59236 1.93591 6.61842 2.0154 6.62168 2.09682C6.62493 2.17825 6.60525 2.25842 6.56483 2.32844L4.37733 6.1173C4.33674 6.1876 4.27683 6.2449 4.2043 6.28279C4.13177 6.32067 4.04948 6.33765 3.96665 6.33182L3.96509 6.33092L3.95267 6.33083L3.89746 6.32926C3.59571 6.32121 3.29468 6.34378 2.99913 6.39662C2.62964 6.46418 2.28241 6.585 2.02454 6.77964L8.09781 10.286C8.13744 9.9654 8.06846 9.60428 7.94223 9.25052C7.83409 8.95081 7.69332 8.66287 7.52243 8.39183L7.5157 8.38188L7.51414 8.38098C7.46759 8.31203 7.44114 8.23212 7.43776 8.15021C7.43439 8.0683 7.45421 7.98765 7.49502 7.9173L9.68252 4.12844C9.72453 4.055 9.78754 3.99566 9.86391 3.95763C9.94028 3.91959 10.0267 3.90448 10.1128 3.91413C10.2454 3.9146 10.3772 3.89868 10.505 3.86672C10.6023 3.8421 10.7002 3.80765 10.7903 3.75766L6.33203 1.18366C6.33504 1.28644 6.35213 1.38825 6.38026 1.48532C6.41833 1.61822 6.47381 1.74604 6.54527 1.86551Z" fill="white"/>
</svg>
