<svg width="94" height="103" viewBox="0 0 94 103" fill="none" xmlns="http://www.w3.org/2000/svg">
<path d="M88.6599 63.886L91.5907 60.9559C93.4352 59.1107 93.4352 56.1088 91.5907 54.2635C90.6966 53.3702 89.5087 52.8778 88.2441 52.8778C87.2953 52.8778 86.3887 53.1553 85.6181 53.6719L85.0007 51.5992L88.173 48.4261C90.0182 46.5809 90.0182 43.5789 88.173 41.7345C86.4747 40.0354 83.7971 39.9049 81.9425 41.3343L78.1832 28.7139C79.6846 27.268 81.1226 25.8612 82.4779 24.506C86.3833 20.5998 89.5587 16.4662 91.4196 12.8648C94.5638 6.77808 93.2476 3.52448 91.59 1.86682C89.9331 0.209147 86.6795 -1.1062 80.592 2.03798C76.9914 3.89807 72.857 7.0735 68.9516 10.9797C67.5963 12.3349 66.1888 13.7722 64.7437 15.2735L52.1224 11.5143C53.5519 9.66044 53.4214 6.98284 51.7231 5.28375C49.8778 3.4393 46.8759 3.43851 45.0314 5.28375L41.8583 8.45685L39.7849 7.83942C40.3015 7.06803 40.5789 6.16144 40.5789 5.21263C40.5789 3.94887 40.0866 2.76013 39.1932 1.86682C37.3488 0.0215749 34.3461 0.0215749 32.5016 1.86682L29.5716 4.79685L14.6369 0.348263C14.1047 0.19039 13.5295 0.335758 13.1379 0.728097L9.29346 4.57254C8.6479 5.21732 8.73309 6.32009 9.46931 6.85858L47.151 34.4403C38.6548 44.0197 30.4704 53.6109 24.6924 60.4636L13.6084 56.2002C13.0512 55.9861 12.4204 56.1197 11.9984 56.5417L7.44197 61.0982C6.85268 61.6883 6.85268 62.6441 7.44197 63.2334L30.2234 86.0148C30.8049 86.597 31.7771 86.597 32.3594 86.0148L36.915 81.4591C37.3371 81.0371 37.4715 80.4056 37.2566 79.8484L32.994 68.7652C39.8466 62.9872 49.437 54.8028 59.0173 46.3058L62.0106 50.3964C62.5421 51.1225 63.6198 51.2163 64.2716 50.5973C64.8148 50.0814 64.8898 49.2163 64.4483 48.6129L61.2838 44.2894C66.2935 39.8181 71.2407 35.307 75.7292 31.0562L89.9573 78.8206L87.9948 80.7823L68.4396 54.0658C67.9473 53.3929 67.0024 53.2467 66.3295 53.7391C65.6558 54.2323 65.5096 55.1772 66.0028 55.8501L86.599 83.9882C87.1375 84.7244 88.2402 84.8096 88.885 84.1641L92.7295 80.3196C93.1218 79.9281 93.2672 79.3521 93.1093 78.8206L88.6599 63.886ZM47.1674 7.41973C47.827 6.7601 48.9282 6.7601 49.5879 7.41973C50.2553 8.08718 50.2553 9.17275 49.5879 9.84019L48.8798 10.5483L45.1494 9.43691L47.1674 7.41973ZM34.6376 4.00279C35.3042 3.33535 36.3906 3.33535 37.058 4.00279C37.7255 4.67024 37.7255 5.75581 37.058 6.42325L36.5922 6.88828L32.8627 5.77769L34.6376 4.00279ZM12.6744 5.46195L14.6369 3.50026L62.4014 17.7276C58.1505 22.2168 53.6394 27.164 49.1674 32.1738L12.6744 5.46195ZM13.4404 59.3717L22.6353 62.9083C20.329 65.6546 18.5603 67.7797 17.5169 69.0372L10.6455 62.1658L13.4404 59.3717ZM19.6623 71.1825C24.9268 64.8309 52.7539 31.4485 71.0875 13.1149C74.7249 9.47677 78.6951 6.41778 81.9784 4.72182C84.4435 3.44789 87.7416 2.28963 89.4548 4.00279C91.1679 5.71595 90.0089 9.01409 88.7357 11.4791C87.0398 14.7624 83.98 18.7319 80.3419 22.37C62.0098 40.7021 28.6267 68.5299 22.275 73.7952L19.6623 71.1825ZM34.0858 80.0172L31.2918 82.8112L24.4204 75.9398C25.6771 74.8972 27.8029 73.1286 30.5493 70.8222L34.0858 80.0172ZM87.0343 56.3995C87.7017 55.7321 88.7873 55.7321 89.4548 56.3995C90.1222 57.0669 90.1222 58.1525 89.4548 58.82L87.6799 60.5949L86.5685 56.8653L87.0343 56.3995ZM83.6174 43.8697C84.284 43.2022 85.3704 43.203 86.0378 43.8697C86.6974 44.5293 86.6974 45.6305 86.0378 46.2901L84.0199 48.3081L82.9085 44.5778L83.6174 43.8697Z" fill="url(#paint0_linear_2116_6942)"/>
<path d="M90.7499 87.1011L77.8629 99.9881C77.3135 100.538 77.2767 101.447 77.7824 102.037C78.3475 102.697 79.3846 102.738 79.9989 102.124L92.8859 89.2371C93.4759 88.6471 93.4759 87.6912 92.8859 87.1011C92.2966 86.5119 91.34 86.5119 90.7499 87.1011Z" fill="url(#paint1_linear_2116_6942)"/>
<path d="M86.4434 82.7936C87.0335 82.2043 87.0335 81.2477 86.4434 80.6584C85.8541 80.0683 84.8975 80.0683 84.3082 80.6584L76.2535 88.7123C75.7041 89.2625 75.6674 90.1706 76.173 90.7615C76.7381 91.4211 77.7752 91.4625 78.3895 90.8482L86.4434 82.7936Z" fill="url(#paint2_linear_2116_6942)"/>
<path d="M81.6095 74.7397C82.1996 74.1496 82.1996 73.193 81.6095 72.6037C81.0195 72.0136 80.0636 72.0136 79.4736 72.6037L73.8355 78.2418C73.286 78.7912 73.2493 79.7002 73.7557 80.291C74.32 80.9506 75.3571 80.9921 75.9714 80.3778L81.6095 74.7397Z" fill="url(#paint3_linear_2116_6942)"/>
<path d="M15.5632 10.5836C14.9731 9.99428 14.0165 9.99428 13.4272 10.5836L0.540209 23.4713C-0.0498614 24.0606 -0.0498614 25.0172 0.540209 25.6065C1.12168 26.188 2.09393 26.188 2.67619 25.6065L15.5632 12.7195C16.1525 12.1295 16.1525 11.1736 15.5632 10.5836Z" fill="url(#paint4_linear_2116_6942)"/>
<path d="M22.0062 17.0285C21.4161 16.4384 20.4603 16.4384 19.871 17.0285L11.8163 25.0831C11.2661 25.6326 11.2301 26.5407 11.7358 27.1316C12.3009 27.7912 13.3372 27.8326 13.9515 27.2183L22.0062 19.1645C22.5962 18.5744 22.5962 17.6178 22.0062 17.0285Z" fill="url(#paint5_linear_2116_6942)"/>
<path d="M22.2818 29.635C22.8641 30.2165 23.8355 30.2165 24.4178 29.635L30.0559 23.9969C30.6452 23.4068 30.6452 22.451 30.0559 21.8609C29.4658 21.2716 28.51 21.2716 27.9199 21.8609L22.2818 27.499C21.6925 28.0891 21.6925 29.0449 22.2818 29.635Z" fill="url(#paint6_linear_2116_6942)"/>
<defs>
<linearGradient id="paint0_linear_2116_6942" x1="22.0813" y1="7.16751" x2="74.1753" y2="8.2772" gradientUnits="userSpaceOnUse">
<stop stop-color="#FFECE0"/>
<stop offset="0.505208" stop-color="#F0CAB2"/>
<stop offset="1" stop-color="#AC836D"/>
</linearGradient>
<linearGradient id="paint1_linear_2116_6942" x1="80.2039" y1="87.956" x2="89.7999" y2="88.1604" gradientUnits="userSpaceOnUse">
<stop stop-color="#FFECE0"/>
<stop offset="0.505208" stop-color="#F0CAB2"/>
<stop offset="1" stop-color="#AC836D"/>
</linearGradient>
<linearGradient id="paint2_linear_2116_6942" x1="77.7502" y1="81.1185" x2="84.4298" y2="81.2608" gradientUnits="userSpaceOnUse">
<stop stop-color="#FFECE0"/>
<stop offset="0.505208" stop-color="#F0CAB2"/>
<stop offset="1" stop-color="#AC836D"/>
</linearGradient>
<linearGradient id="paint3_linear_2116_6942" x1="74.9102" y1="72.8668" x2="80.132" y2="72.978" gradientUnits="userSpaceOnUse">
<stop stop-color="#FFECE0"/>
<stop offset="0.505208" stop-color="#F0CAB2"/>
<stop offset="1" stop-color="#AC836D"/>
</linearGradient>
<linearGradient id="paint4_linear_2116_6942" x1="2.87659" y1="11.4385" x2="12.4756" y2="11.643" gradientUnits="userSpaceOnUse">
<stop stop-color="#FFECE0"/>
<stop offset="0.505208" stop-color="#F0CAB2"/>
<stop offset="1" stop-color="#AC836D"/>
</linearGradient>
<linearGradient id="paint5_linear_2116_6942" x1="13.3127" y1="17.4886" x2="19.9925" y2="17.6309" gradientUnits="userSpaceOnUse">
<stop stop-color="#FFECE0"/>
<stop offset="0.505208" stop-color="#F0CAB2"/>
<stop offset="1" stop-color="#AC836D"/>
</linearGradient>
<linearGradient id="paint6_linear_2116_6942" x1="23.3523" y1="22.1246" x2="28.5768" y2="22.236" gradientUnits="userSpaceOnUse">
<stop stop-color="#FFECE0"/>
<stop offset="0.505208" stop-color="#F0CAB2"/>
<stop offset="1" stop-color="#AC836D"/>
</linearGradient>
</defs>
</svg>
