<svg xmlns="http://www.w3.org/2000/svg" width="20" height="16" viewBox="0 0 20 16" fill="none">
<path d="M17.4862 14.1413H19.2348V15.8899H0V14.1413H1.74862V1.02665C1.74862 0.794773 1.84074 0.572388 2.0047 0.408423C2.16867 0.244458 2.39105 0.152344 2.62293 0.152344H11.366C11.5979 0.152344 11.8203 0.244458 11.9843 0.408423C12.1482 0.572388 12.2403 0.794773 12.2403 1.02665V14.1413H15.7376V7.14683H13.989V5.39821H16.6119C16.8438 5.39821 17.0662 5.49032 17.2301 5.65429C17.3941 5.81825 17.4862 6.04064 17.4862 6.27252V14.1413ZM3.49724 1.90096V14.1413H10.4917V1.90096H3.49724ZM5.24586 7.14683H8.7431V8.89545H5.24586V7.14683ZM5.24586 3.64959H8.7431V5.39821H5.24586V3.64959Z" fill="white"/>
</svg>