<svg xmlns="http://www.w3.org/2000/svg" fill="none" viewBox="0 0 20 20" class="size-5 text-zinc-700 group-data-[theme=dark]:text-white"><title>Paper Plane</title><path fill="currentColor" d="M15.44 1.68c.69-.05 1.47.08 2.13.74.66.67.8 1.45.75 2.14-.03.47-.15 1-.25 1.4l-.09.35a43.7 43.7 0 0 1-3.83 10.67A2.52 2.52 0 0 1 9.7 17l-1.65-3.03a.83.83 0 0 1 .14-1l3.1-3.1a.83.83 0 1 0-1.18-1.17l-3.1 3.1a.83.83 0 0 1-.99.14L2.98 10.3a2.52 2.52 0 0 1 .04-4.45 43.7 43.7 0 0 1 11.02-3.9c.4-.1.92-.23 1.4-.26Z"></path></svg>