<svg width="225" height="46" viewBox="0 0 225 46" fill="none" xmlns="http://www.w3.org/2000/svg">
<path d="M21.7071 3.79183C22.2955 2.60751 23.985 2.6075 24.5734 3.79183L29.3791 13.4641C29.6121 13.9331 30.0599 14.2584 30.5779 14.3351L41.2619 15.9167C42.5701 16.1104 43.0922 17.7172 42.1476 18.6428L34.4338 26.2022C34.0597 26.5687 33.8887 27.0951 33.9759 27.6115L35.7732 38.2613C35.9933 39.5653 34.6265 40.5583 33.4543 39.9461L23.8811 34.9457C23.417 34.7033 22.8635 34.7033 22.3993 34.9457L12.8262 39.9461C11.654 40.5583 10.2872 39.5653 10.5073 38.2613L12.3046 27.6115C12.3917 27.0951 12.2207 26.5687 11.8467 26.2022L4.13282 18.6428C3.1883 17.7172 3.71037 16.1104 5.01856 15.9167L15.7025 14.3351C16.2206 14.2584 16.6683 13.9331 16.9013 13.4641L21.7071 3.79183Z" fill="url(#paint0_linear_1417_7131)"/>
<path d="M66.5157 3.79183C67.1041 2.60751 68.7936 2.6075 69.382 3.79183L74.1877 13.4641C74.4207 13.9331 74.8685 14.2584 75.3865 14.3351L86.0705 15.9167C87.3787 16.1104 87.9008 17.7172 86.9562 18.6428L79.2424 26.2022C78.8683 26.5687 78.6973 27.0951 78.7845 27.6115L80.5818 38.2613C80.8019 39.5653 79.4351 40.5583 78.2629 39.9461L68.6897 34.9457C68.2255 34.7033 67.6721 34.7033 67.2079 34.9457L57.6348 39.9461C56.4626 40.5583 55.0958 39.5653 55.3159 38.2613L57.1132 27.6115C57.2003 27.0951 57.0293 26.5687 56.6553 26.2022L48.9414 18.6428C47.9969 17.7172 48.519 16.1104 49.8272 15.9167L60.5111 14.3351C61.0292 14.2584 61.4769 13.9331 61.7099 13.4641L66.5157 3.79183Z" fill="url(#paint1_linear_1417_7131)"/>
<path d="M111.325 3.79183C111.913 2.60751 113.603 2.6075 114.191 3.79183L118.997 13.4641C119.23 13.9331 119.678 14.2584 120.196 14.3351L130.88 15.9167C132.188 16.1104 132.71 17.7172 131.765 18.6428L124.051 26.2022C123.677 26.5687 123.506 27.0951 123.594 27.6115L125.391 38.2613C125.611 39.5653 124.244 40.5583 123.072 39.9461L113.499 34.9457C113.035 34.7033 112.481 34.7033 112.017 34.9457L102.444 39.9461C101.272 40.5583 99.9049 39.5653 100.125 38.2613L101.922 27.6115C102.009 27.0951 101.838 26.5687 101.464 26.2022L93.7505 18.6428C92.806 17.7172 93.328 16.1104 94.6362 15.9167L105.32 14.3351C105.838 14.2584 106.286 13.9331 106.519 13.4641L111.325 3.79183Z" fill="url(#paint2_linear_1417_7131)"/>
<path d="M156.133 3.79183C156.722 2.60751 158.411 2.6075 159 3.79183L163.805 13.4641C164.038 13.9331 164.486 14.2584 165.004 14.3351L175.688 15.9167C176.996 16.1104 177.518 17.7172 176.574 18.6428L168.86 26.2022C168.486 26.5687 168.315 27.0951 168.402 27.6115L170.199 38.2613C170.42 39.5653 169.053 40.5583 167.881 39.9461L158.307 34.9457C157.843 34.7033 157.29 34.7033 156.826 34.9457L147.252 39.9461C146.08 40.5583 144.713 39.5653 144.934 38.2613L146.731 27.6115C146.818 27.0951 146.647 26.5687 146.273 26.2022L138.559 18.6428C137.615 17.7172 138.137 16.1104 139.445 15.9167L150.129 14.3351C150.647 14.2584 151.095 13.9331 151.328 13.4641L156.133 3.79183Z" fill="url(#paint3_linear_1417_7131)"/>
<path d="M200.942 3.79183C201.53 2.60751 203.22 2.6075 203.808 3.79183L208.614 13.4641C208.847 13.9331 209.295 14.2584 209.813 14.3351L220.497 15.9167C221.805 16.1104 222.327 17.7172 221.382 18.6428L213.669 26.2022C213.295 26.5687 213.124 27.0951 213.211 27.6115L215.008 38.2613C215.228 39.5653 213.861 40.5583 212.689 39.9461L203.116 34.9457C202.652 34.7033 202.098 34.7033 201.634 34.9457L192.061 39.9461C190.889 40.5583 189.522 39.5653 189.742 38.2613L191.539 27.6115C191.627 27.0951 191.456 26.5687 191.082 26.2022L183.368 18.6428C182.423 17.7172 182.945 16.1104 184.253 15.9167L194.937 14.3351C195.455 14.2584 195.903 13.9331 196.136 13.4641L200.942 3.79183Z" fill="url(#paint4_linear_1417_7131)"/>
<defs>
<linearGradient id="paint0_linear_1417_7131" x1="8.56364" y1="4.56192" x2="35.6024" y2="5.13785" gradientUnits="userSpaceOnUse">
<stop stop-color="#FFECE0"/>
<stop offset="0.505208" stop-color="#F0CAB2"/>
<stop offset="1" stop-color="#AC836D"/>
</linearGradient>
<linearGradient id="paint1_linear_1417_7131" x1="53.3722" y1="4.56192" x2="80.411" y2="5.13785" gradientUnits="userSpaceOnUse">
<stop stop-color="#FFECE0"/>
<stop offset="0.505208" stop-color="#F0CAB2"/>
<stop offset="1" stop-color="#AC836D"/>
</linearGradient>
<linearGradient id="paint2_linear_1417_7131" x1="98.1813" y1="4.56192" x2="125.22" y2="5.13785" gradientUnits="userSpaceOnUse">
<stop stop-color="#FFECE0"/>
<stop offset="0.505208" stop-color="#F0CAB2"/>
<stop offset="1" stop-color="#AC836D"/>
</linearGradient>
<linearGradient id="paint3_linear_1417_7131" x1="142.99" y1="4.56192" x2="170.029" y2="5.13785" gradientUnits="userSpaceOnUse">
<stop stop-color="#FFECE0"/>
<stop offset="0.505208" stop-color="#F0CAB2"/>
<stop offset="1" stop-color="#AC836D"/>
</linearGradient>
<linearGradient id="paint4_linear_1417_7131" x1="187.799" y1="4.56192" x2="214.837" y2="5.13785" gradientUnits="userSpaceOnUse">
<stop stop-color="#FFECE0"/>
<stop offset="0.505208" stop-color="#F0CAB2"/>
<stop offset="1" stop-color="#AC836D"/>
</linearGradient>
</defs>
</svg>
