<svg width="73" height="146" viewBox="0 0 73 146" fill="none" xmlns="http://www.w3.org/2000/svg">
<path d="M36.1373 1.77539V14.4886M44.7467 78.4545V52.0557C44.7467 51.336 44.3871 50.6642 43.7882 50.265L41.6359 48.8301C40.913 48.3479 39.9711 48.3479 39.2482 48.8301L36.1373 50.9038V135.221M35.8308 64.0033L28.5266 61.5685C27.8964 61.3585 27.2048 61.4512 26.6521 61.8197L24.1817 63.4666C23.5831 63.8658 23.2232 64.5379 23.2232 65.2574V89.9337M35.8423 118.617L19.1857 117.784C19.0083 117.775 18.8304 117.789 18.6562 117.823L16.344 118.286C15.3379 118.487 14.6138 119.37 14.6138 120.396L14.6135 135.221M35.8377 92.7369L24.1197 90.1328C23.5469 90.0054 22.9471 90.1176 22.459 90.443L19.877 92.1644C19.2784 92.5635 18.9185 93.2356 18.9185 93.9551V117.196M27.5279 90.9754V135.221M44.7467 106.6V135.221M53.3561 135.221V108.61C53.3561 107.73 52.8203 106.938 52.003 106.611L49.5754 105.64C49.2319 105.503 48.8586 105.456 48.4915 105.505L36.4151 107.115M49.0514 94.4625V104.645M49.0514 85.8531V82.4762C49.0514 81.7564 48.6918 81.0846 48.0929 80.6854L45.6226 79.0385C45.0699 78.67 44.3782 78.5773 43.748 78.7874L36.4461 81.2212M40.442 39.0791V48.034M40.442 30.4697V19.9716C40.442 19.4008 40.2153 18.8533 39.8115 18.4498L36.1373 14.7756L32.4631 18.4498C32.0593 18.8536 31.8326 19.4008 31.8326 19.9716V34.8642L28.1584 38.5384C27.7546 38.9422 27.5279 39.4895 27.5279 40.0603V61.2356M1.60156 144.404H70.6731M65.4018 143.831V137.947C65.4018 136.759 64.4381 135.795 63.2495 135.795H9.02516C7.83649 135.795 6.87281 136.759 6.87281 137.947V143.831M31.8326 136.13V144.07M40.442 136.13V144.07" stroke="url(#paint0_linear_2116_6939)" stroke-width="3.13" stroke-miterlimit="10" stroke-linecap="round" stroke-linejoin="round"/>
<defs>
<linearGradient id="paint0_linear_2116_6939" x1="13.6679" y1="13.4081" x2="55.362" y2="13.8382" gradientUnits="userSpaceOnUse">
<stop stop-color="#FFECE0"/>
<stop offset="0.505208" stop-color="#F0CAB2"/>
<stop offset="1" stop-color="#AC836D"/>
</linearGradient>
</defs>
</svg>
