<svg width="18" height="13" viewBox="0 0 18 13" fill="none" xmlns="http://www.w3.org/2000/svg">
<path d="M17.7225 1C17.376 0.4045 16.7385 0 16 0H9V1H17.7225ZM0 10H18V11H0V10ZM9 6H18V7H9V6ZM9 4H18V5H9V4ZM0 8H18V9H0V8ZM2 13H16C16.7385 13 17.376 12.5955 17.7225 12H0.2775C0.624 12.5955 1.2615 13 2 13ZM9 2H18V3H9V2Z" fill="#B22334"/>
<path d="M0.034 11.3395C0.0423333 11.3862 0.0521667 11.4323 0.0635 11.478C0.0768333 11.528 0.0921667 11.5773 0.1095 11.626C0.154 11.7555 0.208 11.8805 0.276 11.9975L0.2775 12H17.7225L17.7235 11.998C17.7913 11.8805 17.8469 11.7563 17.8895 11.6275C17.922 11.5335 17.9474 11.4373 17.9655 11.3395C17.986 11.2295 18 11.1165 18 11H0C0 11.1165 0.014 11.229 0.034 11.3395ZM0 9H18V10H0V9ZM0 7V8H18V7H9H0ZM9 5H18V6H9V5ZM9 3H18V4H9V3ZM0.064 1.522C0.0765 1.471 0.094 1.4225 0.11 1.3735C0.0927479 1.42239 0.077403 1.47192 0.064 1.522ZM9 2H18C18 1.8835 17.986 1.7705 17.9655 1.66C17.948 1.56205 17.9224 1.46572 17.889 1.372C17.8463 1.24265 17.7905 1.11801 17.7225 1H9V2Z" fill="#EEEEEE"/>
<path d="M9 0H2C1.46957 0 0.960859 0.210714 0.585786 0.585786C0.210714 0.960859 0 1.46957 0 2L0 7H9V0Z" fill="#3C3B6E"/>
<path d="M1 1.363L1.309 1.5875L1.191 1.95L1.4995 1.726L1.8085 1.95L1.6905 1.5875L1.9995 1.363H1.6175L1.4995 1L1.382 1.363H1ZM2 2.363L2.309 2.5875L2.191 2.95L2.4995 2.726L2.8085 2.95L2.6905 2.5875L2.9995 2.363H2.6175L2.4995 2L2.382 2.363H2ZM4 2.363L4.309 2.5875L4.191 2.95L4.4995 2.726L4.8085 2.95L4.6905 2.5875L4.9995 2.363H4.6175L4.4995 2L4.382 2.363H4ZM6 2.363L6.309 2.5875L6.191 2.95L6.4995 2.726L6.8085 2.95L6.6905 2.5875L6.9995 2.363H6.6175L6.4995 2L6.382 2.363H6ZM2 4.363L2.309 4.5875L2.191 4.95L2.4995 4.726L2.8085 4.95L2.6905 4.5875L2.9995 4.363H2.6175L2.4995 4L2.382 4.363H2ZM4 4.363L4.309 4.5875L4.191 4.95L4.4995 4.726L4.8085 4.95L4.6905 4.5875L4.9995 4.363H4.6175L4.4995 4L4.382 4.363H4ZM6 4.363L6.309 4.5875L6.191 4.95L6.4995 4.726L6.8085 4.95L6.6905 4.5875L6.9995 4.363H6.6175L6.4995 4L6.382 4.363H6ZM3 1.363L3.309 1.5875L3.191 1.95L3.4995 1.726L3.8085 1.95L3.6905 1.5875L3.9995 1.363H3.6175L3.4995 1L3.382 1.363H3ZM5 1.363L5.309 1.5875L5.191 1.95L5.4995 1.726L5.8085 1.95L5.6905 1.5875L5.9995 1.363H5.6175L5.4995 1L5.382 1.363H5ZM7 1.363L7.309 1.5875L7.191 1.95L7.4995 1.726L7.8085 1.95L7.6905 1.5875L7.9995 1.363H7.6175L7.4995 1L7.382 1.363H7ZM1 3.363L1.309 3.5875L1.191 3.95L1.4995 3.726L1.8085 3.95L1.6905 3.5875L1.9995 3.363H1.6175L1.4995 3L1.382 3.363H1ZM3.191 3.95L3.4995 3.726L3.8085 3.95L3.6905 3.5875L3.9995 3.363H3.6175L3.4995 3L3.382 3.363H3L3.309 3.5875L3.191 3.95ZM5 3.363L5.309 3.5875L5.191 3.95L5.4995 3.726L5.8085 3.95L5.6905 3.5875L5.9995 3.363H5.6175L5.4995 3L5.382 3.363H5ZM7 3.363L7.309 3.5875L7.191 3.95L7.4995 3.726L7.8085 3.95L7.6905 3.5875L7.9995 3.363H7.6175L7.4995 3L7.382 3.363H7ZM1 5.363L1.309 5.5875L1.191 5.95L1.4995 5.726L1.8085 5.95L1.6905 5.5875L1.9995 5.363H1.6175L1.4995 5L1.382 5.363H1ZM3.191 5.95L3.4995 5.726L3.8085 5.95L3.6905 5.5875L3.9995 5.363H3.6175L3.4995 5L3.382 5.363H3L3.309 5.5875L3.191 5.95ZM5 5.363L5.309 5.5875L5.191 5.95L5.4995 5.726L5.8085 5.95L5.6905 5.5875L5.9995 5.363H5.6175L5.4995 5L5.382 5.363H5ZM7 5.363L7.309 5.5875L7.191 5.95L7.4995 5.726L7.8085 5.95L7.6905 5.5875L7.9995 5.363H7.6175L7.4995 5L7.382 5.363H7Z" fill="white"/>
</svg>
