<svg width="16" height="16" viewBox="0 0 16 16" fill="none" xmlns="http://www.w3.org/2000/svg">
<path id="Vector" fill-rule="evenodd" clip-rule="evenodd" d="M0.533333 0C0.391885 0 0.256229 0.0561903 0.15621 0.15621C0.0561903 0.256229 0 0.391885 0 0.533333L0 15.4667C0 15.6081 0.0561903 15.7438 0.15621 15.8438C0.256229 15.9438 0.391885 16 0.533333 16H4.8C4.94145 16 5.0771 15.9438 5.17712 15.8438C5.27714 15.7438 5.33333 15.6081 5.33333 15.4667V5.33333H15.4667C15.6081 5.33333 15.7438 5.27714 15.8438 5.17712C15.9438 5.0771 16 4.94145 16 4.8V0.533333C16 0.391885 15.9438 0.256229 15.8438 0.15621C15.7438 0.0561903 15.6081 0 15.4667 0L0.533333 0ZM1.06667 4.34667V1.06667H4.34667V4.34667H1.06667ZM1.06667 5.25333V14.9333H4.26667V13.7867H2.93333C2.8131 13.7867 2.69779 13.7389 2.61278 13.6539C2.52776 13.5689 2.48 13.4536 2.48 13.3333C2.48 13.2131 2.52776 13.0978 2.61278 13.0128C2.69779 12.9278 2.8131 12.88 2.93333 12.88H4.26667V11.6533H2.4C2.27977 11.6533 2.16446 11.6056 2.07944 11.5206C1.99443 11.4355 1.94667 11.3202 1.94667 11.2C1.94667 11.0798 1.99443 10.9645 2.07944 10.8794C2.16446 10.7944 2.27977 10.7467 2.4 10.7467H4.26667V9.52H2.93333C2.8131 9.52 2.69779 9.47224 2.61278 9.38722C2.52776 9.30221 2.48 9.1869 2.48 9.06667C2.48 8.94644 2.52776 8.83113 2.61278 8.74611C2.69779 8.6611 2.8131 8.61333 2.93333 8.61333H4.26667V7.38667H2.93333C2.8131 7.38667 2.69779 7.33891 2.61278 7.25389C2.52776 7.16887 2.48 7.05357 2.48 6.93333C2.48 6.8131 2.52776 6.69779 2.61278 6.61278C2.69779 6.52776 2.8131 6.48 2.93333 6.48H4.26667V5.25333H1.06667ZM5.25333 4.26667H6.48V2.93333C6.48 2.8131 6.52776 2.69779 6.61278 2.61278C6.69779 2.52776 6.8131 2.48 6.93333 2.48C7.05357 2.48 7.16887 2.52776 7.25389 2.61278C7.33891 2.69779 7.38667 2.8131 7.38667 2.93333V4.26667H8.61333V2.93333C8.61333 2.8131 8.6611 2.69779 8.74611 2.61278C8.83113 2.52776 8.94644 2.48 9.06667 2.48C9.1869 2.48 9.30221 2.52776 9.38722 2.61278C9.47224 2.69779 9.52 2.8131 9.52 2.93333V4.26667H10.7467V2.4C10.7467 2.27977 10.7944 2.16446 10.8794 2.07944C10.9645 1.99443 11.0798 1.94667 11.2 1.94667C11.3202 1.94667 11.4355 1.99443 11.5206 2.07944C11.6056 2.16446 11.6533 2.27977 11.6533 2.4V4.26667H12.88V2.93333C12.88 2.8131 12.9278 2.69779 13.0128 2.61278C13.0978 2.52776 13.2131 2.48 13.3333 2.48C13.4536 2.48 13.5689 2.52776 13.6539 2.61278C13.7389 2.69779 13.7867 2.8131 13.7867 2.93333V4.26667H14.9333V1.06667H5.25333V4.26667Z" fill="white"/>
</svg>
