<svg width="29" height="55" viewBox="0 0 29 55" fill="none" xmlns="http://www.w3.org/2000/svg">
<path id="Vector" d="M0.223815 40.0048C0.29469 39.9341 0.378854 39.878 0.471496 39.8397C0.564138 39.8014 0.663444 39.7817 0.76373 39.7817C0.864017 39.7817 0.963323 39.8014 1.05596 39.8397C1.14861 39.878 1.23277 39.9341 1.30365 40.0048L13.737 52.4011L13.737 0.760855C13.737 0.559066 13.8174 0.365542 13.9605 0.222853C14.1036 0.0801646 14.2977 -1.20901e-06 14.5001 -1.19237e-06C14.7025 -1.17573e-06 14.8966 0.0801647 15.0397 0.222853C15.1828 0.365542 15.2632 0.559066 15.2632 0.760855L15.2632 52.4011L27.6965 40.0048C27.7674 39.9341 27.8516 39.8781 27.9442 39.8398C28.0369 39.8015 28.1362 39.7818 28.2364 39.7818C28.3367 39.7818 28.436 39.8015 28.5286 39.8398C28.6213 39.8781 28.7055 39.9341 28.7764 40.0048C28.8473 40.0755 28.9035 40.1594 28.9419 40.2518C28.9803 40.3442 29 40.4432 29 40.5431C29 40.6431 28.9803 40.7421 28.9419 40.8345C28.9035 40.9268 28.8473 41.0107 28.7764 41.0814L15.04 54.7769C14.9691 54.8476 14.885 54.9037 14.7923 54.942C14.6997 54.9803 14.6004 55 14.5001 55C14.3998 55 14.3005 54.9803 14.2079 54.942C14.1152 54.9037 14.031 54.8476 13.9602 54.7768L0.223815 41.0814C0.152862 41.0108 0.096574 40.9269 0.0581696 40.8345C0.0197651 40.7421 -7.2674e-07 40.6431 -7.18518e-07 40.5431C-7.10296e-07 40.4431 0.0197652 40.3441 0.0581696 40.2518C0.0965741 40.1594 0.152862 40.0755 0.223815 40.0048Z" fill="white"/>
</svg>
