<svg width="26" height="15" viewBox="0 0 26 15" fill="none" xmlns="http://www.w3.org/2000/svg">
<path id="Vector" d="M0.199219 14.5911V7.97785C0.199219 7.58634 0.321249 7.16927 0.565308 6.72663C0.809368 6.28398 1.16402 5.95156 1.62926 5.72935V2.68728C1.62926 1.94131 1.9043 1.31393 2.45439 0.805157C3.00447 0.296381 3.68279 0.0419922 4.48933 0.0419922H10.9245C11.4174 0.0419922 11.8383 0.1359 12.1872 0.323715C12.5352 0.510648 12.8293 0.769446 13.0695 1.10011C13.3098 0.769446 13.6039 0.510648 13.9519 0.323715C14.3008 0.1359 14.7217 0.0419922 15.2146 0.0419922H21.6498C22.4563 0.0419922 23.1346 0.296381 23.6847 0.805157C24.2348 1.31393 24.5098 1.94131 24.5098 2.68728V5.72935C24.9751 5.95156 25.3297 6.28398 25.5738 6.72663C25.8178 7.16927 25.9399 7.58634 25.9399 7.97785V14.5911H24.5098V11.9458H1.62926V14.5911H0.199219ZM13.7846 5.33256H23.0798V2.68728C23.0798 2.31253 22.9425 1.99818 22.6679 1.74423C22.3934 1.49029 22.054 1.36375 21.6498 1.36463H15.2146C14.8094 1.36463 14.4696 1.49161 14.195 1.74556C13.9204 1.9995 13.7836 2.31341 13.7846 2.68728V5.33256ZM3.05929 5.33256H12.3545V2.68728C12.3545 2.31253 12.2172 1.99818 11.9427 1.74423C11.6681 1.49029 11.3287 1.36375 10.9245 1.36463H4.48933C4.08415 1.36463 3.74428 1.49161 3.46971 1.74556C3.19515 1.9995 3.05834 2.31341 3.05929 2.68728V5.33256ZM1.62926 10.6231H24.5098V7.97785C24.5098 7.6031 24.3726 7.28875 24.098 7.0348C23.8234 6.78085 23.484 6.65432 23.0798 6.6552H3.05929C2.65411 6.6552 2.31424 6.78218 2.03968 7.03613C1.76511 7.29007 1.6283 7.60398 1.62926 7.97785V10.6231Z" fill="white"/>
</svg>
