<svg width="23" height="23" viewBox="0 0 23 23" fill="none" xmlns="http://www.w3.org/2000/svg">
<g id="Group 135">
<path id="Vector" d="M20.0163 4.40625H18.0156V5.63743H19.8624V19.1804H2.62587V5.63743H4.47264V4.40625H2.47197C2.32807 4.40865 2.18605 4.43938 2.05403 4.49668C1.922 4.55398 1.80256 4.63673 1.70252 4.7402C1.60248 4.84367 1.52381 4.96583 1.47099 5.09971C1.41817 5.23359 1.39224 5.37657 1.39469 5.52047V19.2974C1.39224 19.4413 1.41817 19.5842 1.47099 19.7181C1.52381 19.852 1.60248 19.9742 1.70252 20.0776C1.80256 20.1811 1.922 20.2638 2.05403 20.3211C2.18605 20.3784 2.32807 20.4092 2.47197 20.4116H20.0163C20.1602 20.4092 20.3022 20.3784 20.4342 20.3211C20.5662 20.2638 20.6857 20.1811 20.7857 20.0776C20.8858 19.9742 20.9644 19.852 21.0173 19.7181C21.0701 19.5842 21.096 19.4413 21.0935 19.2974V5.52047C21.096 5.37657 21.0701 5.23359 21.0173 5.09971C20.9644 4.96583 20.8858 4.84367 20.7857 4.7402C20.6857 4.63673 20.5662 4.55398 20.4342 4.49668C20.3022 4.43938 20.1602 4.40865 20.0163 4.40625Z" fill="white"/>
<path id="Vector_2" d="M5.08984 9.33105H6.32102V10.5622H5.08984V9.33105Z" fill="white"/>
<path id="Vector_3" d="M8.78125 9.33105H10.0124V10.5622H8.78125V9.33105Z" fill="white"/>
<path id="Vector_4" d="M12.4727 9.33105H13.7038V10.5622H12.4727V9.33105Z" fill="white"/>
<path id="Vector_5" d="M16.1719 9.33105H17.4031V10.5622H16.1719V9.33105Z" fill="white"/>
<path id="Vector_6" d="M5.08984 12.4092H6.32102V13.6404H5.08984V12.4092Z" fill="white"/>
<path id="Vector_7" d="M8.78125 12.4092H10.0124V13.6404H8.78125V12.4092Z" fill="white"/>
<path id="Vector_8" d="M12.4727 12.4092H13.7038V13.6404H12.4727V12.4092Z" fill="white"/>
<path id="Vector_9" d="M16.1719 12.4092H17.4031V13.6404H16.1719V12.4092Z" fill="white"/>
<path id="Vector_10" d="M5.08984 15.4868H6.32102V16.718H5.08984V15.4868Z" fill="white"/>
<path id="Vector_11" d="M8.78125 15.4868H10.0124V16.718H8.78125V15.4868Z" fill="white"/>
<path id="Vector_12" d="M12.4727 15.4868H13.7038V16.718H12.4727V15.4868Z" fill="white"/>
<path id="Vector_13" d="M16.1719 15.4868H17.4031V16.718H16.1719V15.4868Z" fill="white"/>
<path id="Vector_14" d="M6.31871 6.86856C6.48198 6.86856 6.63856 6.80371 6.754 6.68826C6.86945 6.57282 6.9343 6.41624 6.9343 6.25297V2.55944C6.9343 2.39617 6.86945 2.23959 6.754 2.12415C6.63856 2.0087 6.48198 1.94385 6.31871 1.94385C6.15545 1.94385 5.99887 2.0087 5.88343 2.12415C5.76798 2.23959 5.70312 2.39617 5.70312 2.55944V6.25297C5.70312 6.41624 5.76798 6.57282 5.88343 6.68826C5.99887 6.80371 6.15545 6.86856 6.31871 6.86856Z" fill="white"/>
<path id="Vector_15" d="M16.1703 6.86856C16.3335 6.86856 16.4901 6.80371 16.6056 6.68826C16.721 6.57282 16.7859 6.41624 16.7859 6.25297V2.55944C16.7859 2.39617 16.721 2.23959 16.6056 2.12415C16.4901 2.0087 16.3335 1.94385 16.1703 1.94385C16.007 1.94385 15.8504 2.0087 15.735 2.12415C15.6195 2.23959 15.5547 2.39617 15.5547 2.55944V6.25297C15.5547 6.41624 15.6195 6.57282 15.735 6.68826C15.8504 6.80371 16.007 6.86856 16.1703 6.86856Z" fill="white"/>
<path id="Vector_16" d="M8.16797 4.40625H14.3239V5.63743H8.16797V4.40625Z" fill="white"/>
</g>
</svg>
