<svg width="35" height="35" viewBox="0 0 35 35" fill="none" xmlns="http://www.w3.org/2000/svg">
<path id="Vector" fill-rule="evenodd" clip-rule="evenodd" d="M3.5 17.5C3.50025 14.8058 4.2779 12.1689 5.73963 9.90567C7.20136 7.64246 9.28508 5.8491 11.7408 4.74077C14.1964 3.63245 16.9198 3.25623 19.584 3.65728C22.2482 4.05832 24.74 5.21959 26.7606 7.00174C28.7812 8.78388 30.2446 11.1112 30.9753 13.7044C31.706 16.2977 31.6729 19.0467 30.88 21.6216C30.0871 24.1964 28.568 26.4878 26.5051 28.2208C24.4422 29.9538 21.9231 31.0547 19.25 31.3915V21H22.75C23.2141 21 23.6592 20.8156 23.9874 20.4874C24.3156 20.1592 24.5 19.7141 24.5 19.25C24.5 18.7859 24.3156 18.3408 23.9874 18.0126C23.6592 17.6844 23.2141 17.5 22.75 17.5H19.25V14C19.25 13.5359 19.4344 13.0908 19.7626 12.7626C20.0908 12.4344 20.5359 12.25 21 12.25H21.875C22.3391 12.25 22.7842 12.0656 23.1124 11.7374C23.4406 11.4092 23.625 10.9641 23.625 10.5C23.625 10.0359 23.4406 9.59075 23.1124 9.26256C22.7842 8.93437 22.3391 8.75 21.875 8.75H21C19.6076 8.75 18.2723 9.30312 17.2877 10.2877C16.3031 11.2723 15.75 12.6076 15.75 14V17.5H12.25C11.7859 17.5 11.3408 17.6844 11.0126 18.0126C10.6844 18.3408 10.5 18.7859 10.5 19.25C10.5 19.7141 10.6844 20.1592 11.0126 20.4874C11.3408 20.8156 11.7859 21 12.25 21H15.75V31.3915C12.3667 30.9649 9.25543 29.3182 7.00001 26.7606C4.74458 24.2029 3.50006 20.9101 3.5 17.5ZM17.5 35C27.1652 35 35 27.1652 35 17.5C35 7.83475 27.1652 0 17.5 0C7.83475 0 0 7.83475 0 17.5C0 27.1652 7.83475 35 17.5 35Z" fill="url(#paint0_linear_71_513)"/>
<defs>
<linearGradient id="paint0_linear_71_513" x1="6.11427" y1="2.85457" x2="27.2342" y2="3.30443" gradientUnits="userSpaceOnUse">
<stop stop-color="#FFECE0"/>
<stop offset="0.505208" stop-color="#F0CAB2"/>
<stop offset="1" stop-color="#AC836D"/>
</linearGradient>
</defs>
</svg>
