<svg width="18" height="20" viewBox="0 0 18 20" fill="none" xmlns="http://www.w3.org/2000/svg">
<path id="Vector" d="M7.39875 14.605L8.72175 15.748C9.01175 15.999 9.04475 16.439 8.79675 16.732C8.73791 16.8015 8.66586 16.8586 8.58478 16.9C8.5037 16.9415 8.4152 16.9664 8.32441 16.9734C8.23363 16.9804 8.14236 16.9692 8.0559 16.9407C7.96944 16.9121 7.88951 16.8667 7.82075 16.807L6.25575 15.455C6.17971 15.3892 6.11874 15.3078 6.07698 15.2164C6.03523 15.1249 6.01366 15.0255 6.01375 14.925V7.938L0.171747 1.155C-0.219253 0.703 0.100747 0 0.694747 0H17.3067C17.9007 0 18.2187 0.704 17.8297 1.155L11.9797 7.939V19.302C11.9797 19.688 11.6697 20 11.2877 20C11.1965 19.9996 11.1062 19.9812 11.022 19.9459C10.9378 19.9107 10.8614 19.8591 10.7972 19.7943C10.7329 19.7295 10.6821 19.6527 10.6475 19.5682C10.6129 19.4837 10.5954 19.3933 10.5957 19.302V7.678C10.5956 7.50987 10.6559 7.3473 10.7657 7.22L15.7887 1.395H2.21075L7.22875 7.22C7.33858 7.3473 7.39892 7.50987 7.39875 7.678V14.605Z" fill="black"/>
</svg>
