<svg width="55" height="29" viewBox="0 0 55 29" fill="none" xmlns="http://www.w3.org/2000/svg">
<path id="Vector" d="M14.9952 0.223814C15.0659 0.294689 15.122 0.378853 15.1603 0.471495C15.1986 0.564137 15.2183 0.663443 15.2183 0.763729C15.2183 0.864016 15.1986 0.963322 15.1603 1.05596C15.122 1.14861 15.0659 1.23277 14.9952 1.30364L2.59892 13.737L54.2391 13.737C54.4409 13.737 54.6345 13.8174 54.7771 13.9605C54.9198 14.1036 55 14.2977 55 14.5001C55 14.7025 54.9198 14.8966 54.7771 15.0397C54.6345 15.1828 54.4409 15.2632 54.2391 15.2632L2.59892 15.2632L14.9952 27.6965C15.0659 27.7674 15.1219 27.8516 15.1602 27.9442C15.1985 28.0369 15.2182 28.1362 15.2182 28.2364C15.2182 28.3367 15.1985 28.436 15.1602 28.5286C15.1219 28.6213 15.0659 28.7055 14.9952 28.7764C14.9245 28.8473 14.8406 28.9035 14.7482 28.9419C14.6558 28.9803 14.5568 29 14.4569 29C14.3569 29 14.2579 28.9803 14.1655 28.9419C14.0732 28.9035 13.9893 28.8473 13.9186 28.7764L0.223149 15.04C0.152407 14.9691 0.0962877 14.885 0.0579981 14.7923C0.0197086 14.6997 1.71714e-07 14.6004 1.7291e-07 14.5001C1.74106e-07 14.3998 0.0197086 14.3005 0.0579981 14.2079C0.0962877 14.1152 0.152407 14.031 0.223149 13.9602L13.9186 0.223814C13.9892 0.152861 14.0731 0.096573 14.1655 0.0581686C14.2579 0.0197641 14.3569 -1.73614e-06 14.4569 -1.73495e-06C14.5569 -1.73376e-06 14.6559 0.0197641 14.7482 0.0581686C14.8406 0.0965731 14.9245 0.152861 14.9952 0.223814Z" fill="white"/>
</svg>
