<svg width="31" height="31" viewBox="0 0 31 31" fill="none" xmlns="http://www.w3.org/2000/svg">
<path id="Vector" d="M28.5084 0H2.49163C1.116 0 0 1.116 0 2.49163V28.5084C0 29.884 1.116 31 2.49163 31H28.5084C29.884 31 31 29.884 31 28.5084V2.49163C31 1.116 29.884 0 28.5084 0ZM28.5084 28.52C11.1561 28.5161 2.48 28.5123 2.48 28.5084C2.48388 11.1561 2.48775 2.48 2.49163 2.48C19.8439 2.48388 28.52 2.48775 28.52 2.49163C28.5161 19.8439 28.5123 28.52 28.5084 28.52ZM4.59575 11.6211H9.19537V26.4159H4.59575V11.6211ZM6.8975 9.59838C8.36613 9.59838 9.5635 8.40487 9.5635 6.93237C9.5635 6.58227 9.49454 6.2356 9.36056 5.91214C9.22658 5.58869 9.03021 5.29479 8.78265 5.04723C8.53509 4.79967 8.24119 4.60329 7.91773 4.46931C7.59428 4.33533 7.2476 4.26638 6.8975 4.26638C6.5474 4.26638 6.20072 4.33533 5.87727 4.46931C5.55381 4.60329 5.25991 4.79967 5.01235 5.04723C4.76479 5.29479 4.56842 5.58869 4.43444 5.91214C4.30046 6.2356 4.2315 6.58227 4.2315 6.93237C4.22762 8.40487 5.42112 9.59838 6.8975 9.59838ZM16.6741 19.096C16.6741 17.1663 17.0422 15.2985 19.4331 15.2985C21.7891 15.2985 21.824 17.5034 21.824 19.22V26.4159H26.4198V18.3016C26.4198 14.3181 25.5595 11.253 20.9056 11.253C18.6698 11.253 17.1701 12.4814 16.554 13.6439H16.492V11.6211H12.0784V26.4159H16.6741V19.096Z" fill="url(#paint0_linear_71_514)"/>
<defs>
<linearGradient id="paint0_linear_71_514" x1="5.4155" y1="2.52834" x2="24.1217" y2="2.92678" gradientUnits="userSpaceOnUse">
<stop stop-color="#FFECE0"/>
<stop offset="0.505208" stop-color="#F0CAB2"/>
<stop offset="1" stop-color="#AC836D"/>
</linearGradient>
</defs>
</svg>
