<svg width="32" height="41" viewBox="0 0 32 41" fill="none" xmlns="http://www.w3.org/2000/svg">
<g id="Group 3">
<path id="Vector" d="M16.0006 23.2726C17.4391 23.2726 18.8452 22.8461 20.0412 22.0469C21.2372 21.2478 22.1694 20.1119 22.7198 18.783C23.2703 17.4541 23.4143 15.9918 23.1337 14.581C22.8531 13.1702 22.1604 11.8743 21.1433 10.8572C20.1262 9.84009 18.8303 9.14742 17.4195 8.8668C16.0087 8.58618 14.5464 8.7302 13.2175 9.28066C11.8885 9.83112 10.7527 10.7633 9.95355 11.9593C9.1544 13.1553 8.72786 14.5614 8.72786 15.9998C8.73017 17.928 9.49715 19.7765 10.8606 21.1399C12.224 22.5033 14.0725 23.2703 16.0006 23.2726ZM16.0006 11.6362C16.8637 11.6362 17.7074 11.8921 18.425 12.3716C19.1426 12.8511 19.7019 13.5326 20.0322 14.3299C20.3624 15.1273 20.4488 16.0047 20.2805 16.8511C20.1121 17.6976 19.6965 18.4752 19.0862 19.0854C18.476 19.6957 17.6984 20.1113 16.852 20.2797C16.0055 20.448 15.1281 20.3616 14.3307 20.0313C13.5334 19.7011 12.8519 19.1418 12.3724 18.4242C11.8929 17.7066 11.637 16.8629 11.637 15.9998C11.6381 14.8429 12.0982 13.7336 12.9163 12.9155C13.7344 12.0974 14.8437 11.6373 16.0006 11.6362Z" fill="url(#paint0_linear_652_13122)"/>
<path id="Vector_2" d="M15.9999 40.7276L28.2705 26.2562C28.441 26.0389 28.6097 25.8202 28.7767 25.6002C30.8727 22.8391 32.0051 19.4667 32 16.0001C32 11.7566 30.3143 7.68693 27.3137 4.68633C24.313 1.68572 20.2434 0 15.9999 0C11.7564 0 7.68666 1.68572 4.68606 4.68633C1.68545 7.68693 -0.000270844 11.7566 -0.000270844 16.0001C-0.00534821 19.4651 1.12647 22.836 3.22157 25.5958L3.22303 25.6002C3.22303 25.6002 3.6594 26.1733 3.72485 26.2504L15.9999 40.7276ZM26.4552 23.8475C26.4523 23.8475 26.1148 24.2955 26.0378 24.3915L15.9999 36.2301L5.94887 24.3755C5.88487 24.2955 5.5445 23.8446 5.54305 23.8431C3.83082 21.5872 2.90548 18.8322 2.90884 16.0001C2.90884 12.5282 4.28807 9.19842 6.74311 6.74338C9.19815 4.28834 12.5279 2.90911 15.9999 2.90911C19.4718 2.90911 22.8016 4.28834 25.2566 6.74338C27.7116 9.19842 29.0909 12.5282 29.0909 16.0001C29.0939 18.834 28.169 21.5906 26.4552 23.8475Z" fill="url(#paint1_linear_652_13122)"/>
</g>
<defs>
<linearGradient id="paint0_linear_652_13122" x1="20.7324" y1="9.91338" x2="11.9552" y2="10.1003" gradientUnits="userSpaceOnUse">
<stop stop-color="#FFECE0"/>
<stop offset="0.505208" stop-color="#F0CAB2"/>
<stop offset="1" stop-color="#AC836D"/>
</linearGradient>
<linearGradient id="paint1_linear_652_13122" x1="26.4098" y1="3.32171" x2="7.09659" y2="3.64493" gradientUnits="userSpaceOnUse">
<stop stop-color="#FFECE0"/>
<stop offset="0.505208" stop-color="#F0CAB2"/>
<stop offset="1" stop-color="#AC836D"/>
</linearGradient>
</defs>
</svg>
