<svg width="16" height="20" viewBox="0 0 16 20" fill="none" xmlns="http://www.w3.org/2000/svg">
<g id="Group">
<path id="Vector" fill-rule="evenodd" clip-rule="evenodd" d="M8.088 18.6359L8.79419 17.8402C9.59551 16.9224 10.3162 16.0517 10.9575 15.2236L11.4869 14.5252C13.6972 11.5471 14.803 9.18346 14.803 7.43646C14.803 3.70742 11.7969 0.68457 8.088 0.68457C4.37911 0.68457 1.37305 3.70742 1.37305 7.43646C1.37305 9.18346 2.47878 11.5471 4.68911 14.5252L5.21848 15.2236C6.13332 16.3958 7.09046 17.5332 8.088 18.6359Z" stroke="white" stroke-width="1.11916" stroke-linecap="round" stroke-linejoin="round"/>
<path id="Vector_2" d="M8.08794 10.1974C9.63317 10.1974 10.8858 8.9447 10.8858 7.39946C10.8858 5.85422 9.63317 4.60156 8.08794 4.60156C6.5427 4.60156 5.29004 5.85422 5.29004 7.39946C5.29004 8.9447 6.5427 10.1974 8.08794 10.1974Z" stroke="white" stroke-width="1.11916" stroke-linecap="round" stroke-linejoin="round"/>
</g>
</svg>
