<svg width="23" height="18" viewBox="0 0 23 18" fill="none" xmlns="http://www.w3.org/2000/svg">
<path id="Vector" d="M2.06361 18C1.47583 18 0.985167 17.802 0.591611 17.406C0.197204 17.0091 0 16.515 0 15.9236V2.07643C0 1.485 0.197204 0.991285 0.591611 0.595285C0.985167 0.198428 1.47583 0 2.06361 0H20.9364C21.5242 0 22.0148 0.198428 22.4084 0.595285C22.8028 0.991285 23 1.485 23 2.07643V15.9236C23 16.515 22.8032 17.0087 22.4097 17.4047C22.0153 17.8016 21.5242 18 20.9364 18H2.06361ZM11.5 9.14786L1.27778 2.42357V15.9236C1.27778 16.1541 1.35146 16.3436 1.49883 16.4919C1.6462 16.6401 1.83446 16.7143 2.06361 16.7143H20.9364C21.1655 16.7143 21.3538 16.6401 21.5012 16.4919C21.6485 16.3436 21.7222 16.1541 21.7222 15.9236V2.42357L11.5 9.14786ZM11.5 7.71429L21.3287 1.28571H1.67133L11.5 7.71429ZM1.27778 2.42357V1.28571V15.9236C1.27778 16.1541 1.35146 16.3436 1.49883 16.4919C1.6462 16.6401 1.83446 16.7143 2.06361 16.7143H1.27778V2.42357Z" fill="url(#paint0_radial_47_1043)"/>
<defs>
<radialGradient id="paint0_radial_47_1043" cx="0" cy="0" r="1" gradientUnits="userSpaceOnUse" gradientTransform="translate(10.7599 8.84041) rotate(47.5575) scale(9.99023 240.528)">
<stop stop-color="#FFECE0"/>
<stop offset="0.505208" stop-color="#F0CAB2"/>
<stop offset="1" stop-color="#AC836D"/>
</radialGradient>
</defs>
</svg>
