<svg width="50" height="45" viewBox="0 0 50 45" fill="none" xmlns="http://www.w3.org/2000/svg">
<path id="Vector" d="M19.5592 42.2981V28.7887H30.4287V42.2981C30.4287 43.7841 31.6515 45 33.1461 45H41.2982C42.7927 45 44.0155 43.7841 44.0155 42.2981V23.3849H48.6351C49.8851 23.3849 50.4829 21.8448 49.5318 21.0342L26.8146 0.688982C25.782 -0.229661 24.2059 -0.229661 23.1733 0.688982L0.456116 21.0342C-0.46779 21.8448 0.102858 23.3849 1.35285 23.3849H5.97238V42.2981C5.97238 43.7841 7.19519 45 8.68974 45H16.8419C18.3364 45 19.5592 43.7841 19.5592 42.2981Z" fill="url(#paint0_linear_954_182)"/>
<defs>
<linearGradient id="paint0_linear_954_182" x1="8.73468" y1="3.67017" x2="38.9028" y2="4.38415" gradientUnits="userSpaceOnUse">
<stop stop-color="#FFECE0"/>
<stop offset="0.505208" stop-color="#F0CAB2"/>
<stop offset="1" stop-color="#AC836D"/>
</linearGradient>
</defs>
</svg>
