<?xml version="1.0" encoding="utf-8"?>
<!-- Generator: Adobe Illustrator 27.6.1, SVG Export Plug-In . SVG Version: 6.00 Build 0)  -->
<svg version="1.1" id="Layer_1" xmlns="http://www.w3.org/2000/svg" xmlns:xlink="http://www.w3.org/1999/xlink" x="0px" y="0px"
	 viewBox="0 0 256 256" style="enable-background:new 0 0 256 256;" xml:space="preserve">
<style type="text/css">
	.st0{fill:#FFFFFF;}
</style>
<g transform="translate(1.4065934065934016 1.4065934065934016) scale(2.81 2.81)">
	<path class="st0" d="M21,11.1h-5.4c-0.8,0-1.5,0.7-1.5,1.5V22v7c0,0.8,0.7,1.5,1.5,1.5s1.5-0.7,1.5-1.5v-5.5H21
		c3,0,5.5-2.4,5.5-5.5v-1.4C26.5,13.5,24,11.1,21,11.1z M23.5,18c0,1.4-1.1,2.5-2.5,2.5h-3.9v-6.4H21c1.4,0,2.5,1.1,2.5,2.5V18z"/>
	<path class="st0" d="M26.8,4.3H12.6c-4.7,0-8.5,3.8-8.5,8.5V27c0,4.7,3.8,8.5,8.5,8.5h6.3v15.5c0,0.8,0.7,1.5,1.5,1.5
		s1.5-0.7,1.5-1.5V35.5h5c4.7,0,8.5-3.8,8.5-8.5V12.8C35.3,8.1,31.5,4.3,26.8,4.3z M32.3,27c0,3-2.5,5.5-5.5,5.5H12.6
		C9.5,32.5,7,30,7,27V12.8c0-3,2.5-5.5,5.5-5.5h14.2c3,0,5.5,2.5,5.5,5.5V27z"/>
	<path class="st0" d="M51.2,64.2h-2c-0.8,0-1.5-0.7-1.5-1.5c0-0.8,0.7-1.5,1.5-1.5h2c0.8,0,1.5,0.7,1.5,1.5
		C52.7,63.6,52,64.2,51.2,64.2z"/>
	<path class="st0" d="M86.4,56.4l-6.7-1.1c-22.3-10.4-41.5-10-56.9,1.3C12.3,56.7,0.9,60,0,66.3l0,7.1c0,2.4,1.9,4.3,4.3,4.3h1.9
		c0.9,4.5,4.9,8,9.6,8s8.8-3.4,9.6-8h36.3c0.9,4.5,4.9,8,9.6,8s8.8-3.4,9.6-8h2.2c1.3,0,2.5-0.5,3.3-1.5l2.3-2.7
		c0.7-0.8,1-1.8,1-2.8v-10C90,58.6,88.5,56.8,86.4,56.4z M61,51.9l-2.4,4.7H28.1C37.7,50.8,48.6,49.3,61,51.9z M12.7,60.7
		c-0.5,0.6-1.2,1.2-2.1,1.7c-1.1,0.7-3.5,2.1-6.3,2C5.9,63,9,61.6,12.7,60.7z M15.9,82.8c-3.8,0-6.9-3.1-6.9-6.9
		c0-3.8,3.1-6.9,6.9-6.9s6.9,3.1,6.9,6.9C22.7,79.7,19.7,82.8,15.9,82.8z M71.5,82.8c-3.8,0-6.9-3.1-6.9-6.9c0-3.8,3.1-6.9,6.9-6.9
		c3.8,0,6.9,3.1,6.9,6.9C78.4,79.7,75.3,82.8,71.5,82.8z M86.7,71.6l-2.3,2.7c-0.3,0.3-0.6,0.5-1,0.5h-2.1c-0.6-4.9-4.7-8.7-9.8-8.7
		c-5,0-9.2,3.8-9.8,8.7H25.6c-0.6-4.9-4.7-8.7-9.8-8.7c-5,0-9.2,3.8-9.8,8.7H4.3c-0.8,0-1.4-0.6-1.4-1.4v-6c0.5,0.1,1,0.1,1.5,0.1
		c2.6,0,5.3-0.9,7.8-2.5c2.2-1.5,3.8-3.3,4.5-5c2-0.3,4.1-0.4,6.2-0.4c0.1,0,0.2,0,0.3,0l0.5,0l0,0h33.4l-4.6,9.5
		c-0.4,0.7-0.1,1.6,0.7,2c0.2,0.1,0.4,0.2,0.6,0.2c0.5,0,1.1-0.3,1.3-0.8l5.7-11.6v0l3.1-6.1c4.7,1.2,9.5,3,14.6,5.4l0.2,0.1
		l7.1,1.2c0.7,0.1,1.1,0.7,1.1,1.3v0.6h-1.6c-0.8,0-1.5,0.7-1.5,1.5c0,0.8,0.7,1.5,1.5,1.5H87v6.5C87,71,86.9,71.4,86.7,71.6z"/>
	<path class="st0" d="M15.9,80.6c-2.6,0-4.7-2.1-4.7-4.7c0-2.6,2.1-4.7,4.7-4.7s4.7,2.1,4.7,4.7C20.6,78.5,18.5,80.6,15.9,80.6z
		 M15.9,74.2c-1,0-1.8,0.8-1.8,1.8c0,1,0.8,1.8,1.8,1.8s1.8-0.8,1.8-1.8C17.6,75,16.8,74.2,15.9,74.2z"/>
	<path class="st0" d="M71.5,80.6c-2.6,0-4.7-2.1-4.7-4.7c0-2.6,2.1-4.7,4.7-4.7c2.6,0,4.7,2.1,4.7,4.7
		C76.2,78.5,74.1,80.6,71.5,80.6z M71.5,74.2c-1,0-1.8,0.8-1.8,1.8c0,1,0.8,1.8,1.8,1.8c1,0,1.8-0.8,1.8-1.8
		C73.3,75,72.5,74.2,71.5,74.2z"/>
</g>
</svg>
