<svg width="15" height="15" viewBox="0 0 15 15" fill="none" xmlns="http://www.w3.org/2000/svg">
<path id="Vector" d="M2.82454 1.59579C2.87242 2.30591 2.9921 3.00008 3.1836 3.66233L2.22612 4.61981C1.89899 3.66233 1.69154 2.64901 1.61972 1.59579H2.82454ZM10.6918 11.1865C11.37 11.378 12.0642 11.4976 12.7663 11.5455V12.7344C11.7131 12.6626 10.6998 12.4551 9.7343 12.136L10.6918 11.1865ZM3.59052 0H0.797894C0.359052 0 0 0.359052 0 0.797894C0 8.29012 6.07197 14.3621 13.5642 14.3621C14.003 14.3621 14.3621 14.003 14.3621 13.5642V10.7795C14.3621 10.3407 14.003 9.98165 13.5642 9.98165C12.5748 9.98165 11.6094 9.82207 10.7157 9.52685C10.6365 9.49812 10.5526 9.48459 10.4684 9.48696C10.2609 9.48696 10.0614 9.56675 9.90186 9.71835L8.1465 11.4737C5.88481 10.3171 4.04501 8.47728 2.88838 6.21559L4.64374 4.46023C4.86715 4.23682 4.93098 3.92564 4.84322 3.64637C4.54053 2.72725 4.38699 1.76558 4.38842 0.797894C4.38842 0.359052 4.02936 0 3.59052 0Z" fill="white"/>
</svg>
