<svg width="21" height="20" viewBox="0 0 21 20" fill="none" xmlns="http://www.w3.org/2000/svg">
<g id="Group 127">
<path id="Vector" d="M13.178 19C16.9449 19 19.9986 16.107 19.9986 12.5383C19.9986 8.96964 16.9449 6.07666 13.178 6.07666C9.4111 6.07666 6.35742 8.96964 6.35742 12.5383C6.35742 16.107 9.4111 19 13.178 19Z" stroke="white" stroke-linecap="round" stroke-linejoin="round"/>
<path id="Vector_2" d="M11.0735 15.0077C11.2755 15.2493 11.5358 15.4414 11.8325 15.5679C12.1292 15.6944 12.4536 15.7515 12.7784 15.7346H13.8018C14.2541 15.7346 14.6878 15.5644 15.0076 15.2614C15.3273 14.9585 15.507 14.5476 15.507 14.1191C15.507 13.6907 15.3273 13.2798 15.0076 12.9769C14.6878 12.6739 14.2541 12.5037 13.8018 12.5037H12.6932C12.2409 12.5037 11.8072 12.3335 11.4874 12.0306C11.1677 11.7276 10.988 11.3168 10.988 10.8883C10.988 10.4599 11.1677 10.049 11.4874 9.74605C11.8072 9.4431 12.2409 9.2729 12.6932 9.2729H13.7166C14.0435 9.23774 14.3743 9.28669 14.6744 9.41459C14.9744 9.5425 15.2325 9.74463 15.4215 9.99973M13.2046 8.38456V16.4614M6.64697 10.3364C6.41689 10.1321 6.23371 9.88517 6.10887 9.61087C5.98402 9.33657 5.9202 9.04084 5.92137 8.74213V6.64193C5.92015 6.35522 5.97886 6.07111 6.09413 5.80601C6.20939 5.54091 6.37892 5.30005 6.59295 5.09734C6.80697 4.89462 7.06124 4.73406 7.34109 4.62492C7.62095 4.51578 7.92084 4.46022 8.22348 4.46145C8.56537 4.46745 8.90196 4.54261 9.2107 4.68189C9.51944 4.82117 9.79319 5.02136 10.0136 5.26903M4.89844 6.80344H7.79726M4.89844 8.41861H7.79726" stroke="white" stroke-linecap="round" stroke-linejoin="round"/>
<path id="Vector_3" d="M6.40211 13.782C5.20142 13.5402 4.09187 12.9958 3.19051 12.2064C2.28914 11.4169 1.62937 10.4117 1.28079 9.29659C0.932201 8.18153 0.90772 6.998 1.20993 5.87086C1.51213 4.74371 2.12983 3.71473 2.99785 2.89243C3.86588 2.07013 4.95206 1.48501 6.14183 1.19878C7.3316 0.912546 8.58086 0.935814 9.75784 1.26613C10.9348 1.59644 11.9959 2.22156 12.8291 3.07554C13.6624 3.92952 14.2369 4.98071 14.4921 6.11824" stroke="white" stroke-linecap="round" stroke-linejoin="round"/>
</g>
</svg>
