<svg width="67" height="93" viewBox="0 0 67 93" fill="none" xmlns="http://www.w3.org/2000/svg">
<circle cx="33.5" cy="45.5" r="32.5" stroke="url(#paint0_linear_1129_164)" stroke-width="2"/>
<path d="M33.942 24.042C36.5047 24.042 38.778 24.5587 40.762 25.592C42.7873 26.6253 44.358 28.072 45.474 29.932C46.6313 31.792 47.21 33.962 47.21 36.442C47.21 45.1633 41.94 49.5653 31.4 49.648L31.276 57.584H28.92L28.734 47.54H29.974C34.3967 47.54 37.9307 46.7753 40.576 45.246C43.2213 43.7167 44.544 40.782 44.544 36.442C44.544 33.3833 43.5727 30.9447 41.63 29.126C39.6873 27.3073 37.1453 26.398 34.004 26.398C30.8213 26.398 28.2793 27.266 26.378 29.002C24.518 30.738 23.588 33.0733 23.588 36.008H20.922C20.922 33.5693 21.48 31.4407 22.596 29.622C23.712 27.8033 25.262 26.4187 27.246 25.468C29.23 24.5173 31.462 24.042 33.942 24.042ZM30.098 68.186C29.3953 68.186 28.8167 67.9587 28.362 67.504C27.9073 67.0493 27.68 66.4707 27.68 65.768C27.68 65.0653 27.9073 64.4867 28.362 64.032C28.8167 63.5773 29.3953 63.35 30.098 63.35C30.7593 63.35 31.3173 63.5773 31.772 64.032C32.2267 64.4867 32.454 65.0653 32.454 65.768C32.454 66.4707 32.2267 67.0493 31.772 67.504C31.3173 67.9587 30.7593 68.186 30.098 68.186Z" fill="url(#paint1_linear_1129_164)"/>
<defs>
<linearGradient id="paint0_linear_1129_164" x1="11.7045" y1="17.4645" x2="52.134" y2="18.3256" gradientUnits="userSpaceOnUse">
<stop stop-color="#FFECE0"/>
<stop offset="0.505208" stop-color="#F0CAB2"/>
<stop offset="1" stop-color="#AC836D"/>
</linearGradient>
<linearGradient id="paint1_linear_1129_164" x1="24.4155" y1="7.58501" x2="43.1293" y2="7.71788" gradientUnits="userSpaceOnUse">
<stop stop-color="#FFECE0"/>
<stop offset="0.505208" stop-color="#F0CAB2"/>
<stop offset="1" stop-color="#AC836D"/>
</linearGradient>
</defs>
</svg>
