<svg width="55" height="29" viewBox="0 0 55 29" fill="none" xmlns="http://www.w3.org/2000/svg">
<path id="Vector" d="M40.0048 28.7762C39.9341 28.7053 39.878 28.6211 39.8397 28.5285C39.8014 28.4359 39.7817 28.3366 39.7817 28.2363C39.7817 28.136 39.8014 28.0367 39.8397 27.944C39.878 27.8514 39.9341 27.7672 40.0048 27.6964L52.4011 15.263L0.760856 15.263C0.559066 15.263 0.365543 15.1826 0.222854 15.0395C0.0801652 14.8964 -6.42658e-07 14.7023 -6.33811e-07 14.4999C-6.24964e-07 14.2975 0.0801652 14.1034 0.222854 13.9603C0.365543 13.8172 0.559066 13.7368 0.760856 13.7368L52.4011 13.7368L40.0048 1.30347C39.9341 1.23257 39.8781 1.14839 39.8398 1.05575C39.8015 0.963116 39.7818 0.863826 39.7818 0.763555C39.7818 0.663283 39.8015 0.563993 39.8398 0.471354C39.8781 0.378716 39.9341 0.294542 40.0048 0.223639C40.0755 0.152736 40.1594 0.0964934 40.2518 0.0581212C40.3442 0.0197489 40.4432 -6.363e-07 40.5431 -6.3193e-07C40.6431 -6.2756e-07 40.7421 0.019749 40.8345 0.0581212C40.9268 0.0964935 41.0107 0.152736 41.0814 0.223639L54.7769 13.96C54.8476 14.0309 54.9037 14.115 54.942 14.2077C54.9803 14.3003 55 14.3996 55 14.4999C55 14.6002 54.9803 14.6995 54.942 14.7921C54.9037 14.8848 54.8476 14.969 54.7769 15.0398L41.0814 28.7762C41.0108 28.8471 40.9269 28.9034 40.8345 28.9418C40.7421 28.9802 40.6431 29 40.5431 29C40.4431 29 40.3441 28.9802 40.2518 28.9418C40.1594 28.9034 40.0755 28.8471 40.0048 28.7762Z" fill="white"/>
</svg>
