<svg width="33" height="33" viewBox="0 0 33 33" fill="none" xmlns="http://www.w3.org/2000/svg">
  <path 
    id="Vector" 
    d="M32 32L24.5205 24.5205M24.5205 24.5205C25.7999 23.2411 26.8148 21.7222 27.5072 20.0506C28.1996 18.379 28.556 16.5873 28.556 14.778C28.556 12.9686 28.1996 11.177 27.5072 9.50537C26.8148 7.83375 25.7999 6.31488 24.5205 5.03548C23.2411 3.75607 21.7222 2.74119 20.0506 2.04879C18.379 1.35638 16.5873 1 14.778 1C12.9686 1 11.177 1.35638 9.50537 2.04879C7.83375 2.74119 6.31488 3.75607 5.03548 5.03548C2.4516 7.61935 1 11.1238 1 14.778C1 18.4321 2.4516 21.9366 5.03548 24.5205C7.61935 27.1043 11.1238 28.556 14.778 28.556C18.4321 28.556 21.9366 27.1043 24.5205 24.5205Z" 
    stroke="var(--Gold-lux, #FFDE9B)" 
    stroke-width="1px"
    stroke-linecap="round" 
    stroke-linejoin="round"
  />
</svg>