<?xml version="1.0" encoding="UTF-8"?>
<svg id="Layer_1" xmlns="http://www.w3.org/2000/svg" version="1.1" viewBox="0 0 469.4 426.7">
  <!-- Generator: Adobe Illustrator 29.1.0, SVG Export Plug-In . SVG Version: 2.1.0 Build 142)  -->
  <g id="Up_Down">
    <g id="Path">
      <path d="M463.1,283.6c-8.3-8.3-21.8-8.3-30.2,0l-70.3,70.3V21.3c0-11.8-9.6-21.3-21.3-21.3s-21.3,9.6-21.3,21.3v332.5l-70.3-70.3c-8.5-8.2-22-8-30.2.5-8,8.3-8,21.4,0,29.6l106.7,106.7c8.3,8.3,21.8,8.4,30.2,0,0,0,0,0,0,0l106.7-106.7c8.3-8.3,8.3-21.8,0-30.2h0Z"/>
      <path d="M249.8,112.9L143.1,6.3c-2-2-4.4-3.6-7-4.6-5.2-2.2-11.1-2.2-16.3,0-2.6,1.1-5,2.6-7,4.6L6.2,112.9c-8.3,8.3-8.3,21.9,0,30.2,8.3,8.3,21.9,8.3,30.2,0l70.3-70.3v332.5c0,11.8,9.6,21.3,21.3,21.3s21.3-9.6,21.3-21.3V72.8l70.3,70.3c8.5,8.2,22,8,30.2-.5,8-8.3,8-21.4,0-29.6h0Z"/>
    </g>
  </g>
</svg>