<svg width="28" height="31" viewBox="0 0 28 31" fill="none" xmlns="http://www.w3.org/2000/svg">
<path id="Vector" d="M22.2143 4.85667C20.9936 3.51268 20.3209 1.78669 20.3214 0H14.8036V21.3556C14.761 22.5112 14.2551 23.6058 13.3924 24.4089C12.5297 25.212 11.3776 25.6609 10.1786 25.6611C7.64286 25.6611 5.53572 23.6633 5.53572 21.1833C5.53572 18.2211 8.5 15.9994 11.5536 16.9122V11.47C5.39286 10.6778 0 15.2933 0 21.1833C0 26.9183 4.92857 31 10.1607 31C15.7679 31 20.3214 26.6083 20.3214 21.1833V10.3506C22.5589 11.9003 25.2453 12.7318 28 12.7272V7.40556C28 7.40556 24.6429 7.56056 22.2143 4.85667Z" fill="url(#paint0_linear_71_515)"/>
<defs>
<linearGradient id="paint0_linear_71_515" x1="4.89142" y1="2.52834" x2="21.7888" y2="2.85342" gradientUnits="userSpaceOnUse">
<stop stop-color="#FFECE0"/>
<stop offset="0.505208" stop-color="#F0CAB2"/>
<stop offset="1" stop-color="#AC836D"/>
</linearGradient>
</defs>
</svg>
