<svg width="29" height="55" viewBox="0 0 29 55" fill="none" xmlns="http://www.w3.org/2000/svg">
<path id="Vector" d="M28.7762 14.9952C28.7053 15.0659 28.6211 15.122 28.5285 15.1603C28.4359 15.1986 28.3366 15.2183 28.2363 15.2183C28.136 15.2183 28.0367 15.1986 27.944 15.1603C27.8514 15.122 27.7672 15.0659 27.6964 14.9952L15.263 2.59893L15.263 54.2391C15.263 54.4409 15.1826 54.6345 15.0395 54.7771C14.8964 54.9198 14.7023 55 14.4999 55C14.2975 55 14.1034 54.9198 13.9603 54.7771C13.8172 54.6345 13.7368 54.4409 13.7368 54.2391L13.7368 2.59893L1.30347 14.9952C1.23257 15.0659 1.14839 15.1219 1.05575 15.1602C0.963115 15.1985 0.863825 15.2182 0.763554 15.2182C0.663282 15.2182 0.563992 15.1985 0.471353 15.1602C0.378715 15.1219 0.294541 15.0659 0.223638 14.9952C0.152735 14.9245 0.0964924 14.8406 0.0581202 14.7482C0.019748 14.6558 -1.6161e-06 14.5568 -1.605e-06 14.4569C-1.5939e-06 14.3569 0.019748 14.2579 0.0581203 14.1655C0.0964925 14.0732 0.152736 13.9893 0.223638 13.9186L13.96 0.22315C14.0309 0.152409 14.115 0.0962891 14.2077 0.0579995C14.3003 0.01971 14.3996 1.59864e-06 14.4999 1.60978e-06C14.6002 1.62091e-06 14.6995 0.01971 14.7921 0.0579996C14.8848 0.0962892 14.969 0.152409 15.0398 0.22315L28.7762 13.9186C28.8471 13.9892 28.9034 14.0731 28.9418 14.1655C28.9802 14.2579 29 14.3569 29 14.4569C29 14.5569 28.9802 14.6559 28.9418 14.7482C28.9034 14.8406 28.8471 14.9245 28.7762 14.9952Z" fill="white"/>
</svg>
