<svg width="40" height="29" viewBox="0 0 40 29" fill="none" xmlns="http://www.w3.org/2000/svg">
<path id="Vector" d="M40 14.375C40 14.2769 40 14.1653 39.9955 14.0359C39.9911 13.6744 39.9821 13.2682 39.9732 12.8353C39.9375 11.5902 39.875 10.3495 39.7768 9.18021C39.6429 7.5691 39.4464 6.22576 39.1786 5.21714C38.8959 4.16456 38.3418 3.20459 37.5717 2.43316C36.8017 1.66174 35.8425 1.10589 34.7902 0.821175C33.5268 0.481994 31.0536 0.272237 27.5714 0.142813C25.9152 0.0803323 24.1429 0.0401659 22.3705 0.0178514C21.75 0.00892555 21.1741 0.00446291 20.6563 0H19.3438C18.8259 0.00446291 18.25 0.00892555 17.6295 0.0178514C15.8571 0.0401659 14.0848 0.0803323 12.4286 0.142813C8.94643 0.2767 6.46875 0.486457 5.20982 0.821175C4.15715 1.10519 3.19763 1.66081 2.42743 2.43234C1.65723 3.20387 1.10339 4.16422 0.821429 5.21714C0.549107 6.22576 0.357143 7.5691 0.223214 9.18021C0.125 10.3495 0.0624999 11.5902 0.0267856 12.8353C0.0133928 13.2682 0.0089285 13.6744 0.00446422 14.0359C0.00446422 14.1653 0 14.2769 0 14.375V14.625C0 14.7231 -6.81861e-08 14.8347 0.00446422 14.9641C0.0089285 15.3256 0.0178571 15.7318 0.0267856 16.1647C0.0624999 17.4098 0.125 18.6505 0.223214 19.8198C0.357143 21.4309 0.553572 22.7742 0.821429 23.7829C1.39286 25.9206 3.07143 27.6076 5.20982 28.1788C6.46875 28.518 8.94643 28.7278 12.4286 28.8572C14.0848 28.9197 15.8571 28.9598 17.6295 28.9821C18.25 28.9911 18.8259 28.9955 19.3438 29H20.6563C21.1741 28.9955 21.75 28.9911 22.3705 28.9821C24.1429 28.9598 25.9152 28.9197 27.5714 28.8572C31.0536 28.7233 33.5312 28.5135 34.7902 28.1788C36.9286 27.6076 38.6071 25.9251 39.1786 23.7829C39.4509 22.7742 39.6429 21.4309 39.7768 19.8198C39.875 18.6505 39.9375 17.4098 39.9732 16.1647C39.9866 15.7318 39.9911 15.3256 39.9955 14.9641C39.9955 14.8347 40 14.7231 40 14.625V14.375ZM36.7857 14.6071C36.7857 14.7008 36.7857 14.8035 36.7813 14.924C36.7768 15.2721 36.7679 15.6559 36.7589 16.0709C36.7277 17.2581 36.6652 18.4452 36.5714 19.5476C36.4509 20.9846 36.2812 22.1628 36.0714 22.9528C35.7946 23.9837 34.9821 24.8004 33.9554 25.0726C33.0179 25.3226 30.6562 25.5234 27.4464 25.6439C25.8214 25.7064 24.0714 25.7465 22.3259 25.7689C21.7143 25.7778 21.1473 25.7822 20.6384 25.7822H19.3616L17.6741 25.7689C15.9286 25.7465 14.183 25.7064 12.5536 25.6439C9.34375 25.5189 6.97768 25.3226 6.04464 25.0726C5.01786 24.7959 4.20536 23.9837 3.92857 22.9528C3.71875 22.1628 3.54911 20.9846 3.42857 19.5476C3.33482 18.4452 3.27679 17.2581 3.24107 16.0709C3.22768 15.6559 3.22321 15.2676 3.21875 14.924C3.21875 14.8035 3.21429 14.6964 3.21429 14.6071V14.3929C3.21429 14.2992 3.21429 14.1965 3.21875 14.076C3.22321 13.7279 3.23214 13.3441 3.24107 12.9291C3.27232 11.7419 3.33482 10.5548 3.42857 9.45245C3.54911 8.01539 3.71875 6.83718 3.92857 6.04724C4.20536 5.01631 5.01786 4.1996 6.04464 3.92736C6.98214 3.67744 9.34375 3.47661 12.5536 3.35611C14.1786 3.29363 15.9286 3.25346 17.6741 3.23115C18.2857 3.22222 18.8527 3.21776 19.3616 3.21776H20.6384L22.3259 3.23115C24.0714 3.25346 25.817 3.29363 27.4464 3.35611C30.6562 3.48107 33.0223 3.67744 33.9554 3.92736C34.9821 4.20406 35.7946 5.01631 36.0714 6.04724C36.2812 6.83718 36.4509 8.01539 36.5714 9.45245C36.6652 10.5548 36.7232 11.7419 36.7589 12.9291C36.7723 13.3441 36.7768 13.7324 36.7813 14.076C36.7813 14.1965 36.7857 14.3036 36.7857 14.3929V14.6071ZM16.0268 20.4803L26.3839 14.4554L16.0268 8.5197V20.4803Z" fill="url(#paint0_linear_71_512)"/>
<defs>
<linearGradient id="paint0_linear_71_512" x1="6.98774" y1="2.36522" x2="31.1149" y2="3.07407" gradientUnits="userSpaceOnUse">
<stop stop-color="#FFECE0"/>
<stop offset="0.505208" stop-color="#F0CAB2"/>
<stop offset="1" stop-color="#AC836D"/>
</linearGradient>
</defs>
</svg>
